<!-- icon666.com - MILLIONS OF FREE VECTOR ICONS --><svg id="Layer_1" enable-background="new 0 0 450 450" viewBox="0 0 450 450" xmlns="http://www.w3.org/2000/svg"><g><g><g id="XMLID_1_"><path fill="#135EA8" d="m440 290.31v27.01h-22.49c-2.48 0-4.6 1.76-5.04 4.2-2.5 13.68-7.78 26.43-15.71 37.9-1.41 2.04-1.16 4.78.58 6.53l15.92 15.92-19.1 19.09-15.91-15.91c-1.75-1.75-4.49-2.01-6.53-.59-11.47 7.92-24.23 13.21-37.9 15.71-2.44.44-4.2 2.56-4.2 5.04v22.49h-27.01v-22.49c0-2.48-1.76-4.6-4.2-5.04-13.67-2.5-26.42-7.79-37.9-15.71-2.04-1.41-4.78-1.16-6.53.58l-15.92 15.92-19.09-19.09 15.91-15.92c1.75-1.75 2.01-4.49.59-6.53-6.54-9.47-11.29-19.83-14.16-30.87 7.31-2.25 14.39-5.09 21.24-8.49 7.47 34.15 37.9 59.08 73.56 59.08 41.54 0 75.34-33.8 75.34-75.33 0-41.01-32.93-74.47-73.73-75.32.65-2.42 1.24-4.85 1.76-7.31h33c2.83 0 5.12-2.29 5.12-5.12v-1.02c4.91 2.31 9.64 5.03 14.13 8.13 2.04 1.4 4.78 1.15 6.53-.59l15.91-15.92 19.1 19.1-15.92 15.91c-1.74 1.75-2 4.49-.58 6.53 7.92 11.47 13.21 24.23 15.71 37.9.44 2.44 2.56 4.2 5.04 4.2z"></path><path fill="#135EA8" d="m381.21 303.82c0 35.89-29.2 65.09-65.1 65.09-31.81 0-58.82-22.98-64.14-53.98 1.65-.97 3.29-2 4.9-3.04l23.34 23.34c.96.96 2.26 1.5 3.62 1.5 1.35 0 2.65-.54 3.61-1.5l35.48-35.48c.96-.96 1.5-2.26 1.5-3.62 0-1.35-.54-2.65-1.5-3.61l-23.34-23.34c6.23-9.6 11.23-19.78 14.97-30.44.52-.01 1.04-.02 1.56-.02 35.9 0 65.1 29.2 65.1 65.1z"></path><path fill="#135EA8" d="m315.28 171.01c-2.48 0-4.6-1.77-5.04-4.21-3.41-18.67-10.64-36.08-21.45-51.75-1.41-2.04-1.16-4.78.58-6.53l22.7-22.69-28.24-28.24-22.7 22.69c-1.75 1.75-4.49 2-6.53.59-15.67-10.83-33.09-18.05-51.75-21.45-2.44-.44-4.2-2.56-4.2-5.04v-32.08h-39.94v32.08c0 2.47-1.77 4.59-4.2 5.04-18.68 3.41-36.09 10.63-51.76 21.45-2.03 1.4-4.78 1.16-6.53-.59l-22.69-22.69-28.24 28.24 22.7 22.69c1.74 1.75 2 4.5.58 6.53-10.83 15.68-18.05 33.09-21.45 51.75-.44 2.44-2.56 4.21-5.04 4.21h-32.08v39.94h32.08c2.47 0 4.59 1.76 5.04 4.2 3.41 18.67 10.63 36.09 21.45 51.75 1.4 2.04 1.16 4.78-.59 6.53l-22.69 22.69 28.24 28.24 22.7-22.69c1.74-1.75 4.49-2 6.52-.59 15.68 10.83 33.09 18.06 51.76 21.46 2.43.45 4.2 2.57 4.2 5.04v32.08h39.94v-32.08c0-2.47 1.76-4.59 4.2-5.04 3.67-.68 7.31-1.49 10.88-2.46 10.43-2.82 20.42-6.88 29.87-12.14.01 0 .03-.01.04-.02.14-.09.29-.17.44-.25.02-.02.04-.03.06-.04 3.56-2.01 7.05-4.2 10.46-6.55 2.04-1.4 4.79-1.16 6.53.59l22.7 22.7 28.24-28.25-22.7-22.69c-1.74-1.75-2-4.49-.58-6.53 7.4-10.71 13.1-22.21 17.07-34.39.05-.2.11-.41.19-.61 0 0 .01-.01.01-.02 1.74-5.45 3.14-11.02 4.18-16.73.44-2.44 2.56-4.2 5.04-4.2h32.08v-3.21c-.01-.22-.01-.41 0-.61v-36.11zm-136.6 119.69c-54.98 0-99.71-44.73-99.71-99.71 0-54.99 44.73-99.71 99.71-99.71s99.71 44.72 99.71 99.71c0 54.97-44.73 99.71-99.71 99.71z"></path><ellipse cx="178.68" cy="190.99" rx="89.47" ry="89.47" transform="matrix(.707 -.707 .707 .707 -82.716 182.286)" fill="#135EA8"></ellipse></g></g></g></svg>