<svg width="821" height="205" viewBox="0 0 821 205" fill="none" xmlns="http://www.w3.org/2000/svg">
<path fill-rule="evenodd" clip-rule="evenodd" d="M729.154 88.2336L744.161 103.241L726.883 120.518L711.261 104.896L728.538 87.6182L729.154 88.2336Z" fill="white"/>
<path fill-rule="evenodd" clip-rule="evenodd" d="M741.699 103.241L728.538 90.0806L713.724 104.896L726.883 118.056L741.699 103.241Z" fill="white"/>
<path fill-rule="evenodd" clip-rule="evenodd" d="M670.4 176.754L662.56 184.595L647.184 169.22L655.026 161.379L670.4 176.754Z" fill="white"/>
<path fill-rule="evenodd" clip-rule="evenodd" d="M691.966 155.187L687.755 159.397L672.381 144.023L676.591 139.812L691.966 155.187Z" fill="white"/>
<path fill-rule="evenodd" clip-rule="evenodd" d="M653.377 157.901L673.877 178.402L689.405 162.874L668.904 142.375L653.377 157.901Z" fill="white"/>
<path fill-rule="evenodd" clip-rule="evenodd" d="M651.962 185.743L654.658 188.439L659.615 183.481L656.919 180.784L651.962 185.743Z" fill="white"/>
<path fill-rule="evenodd" clip-rule="evenodd" d="M643.339 177.121L646.034 179.816L650.993 174.858L648.299 172.164L643.339 177.121Z" fill="white"/>
<path fill-rule="evenodd" clip-rule="evenodd" d="M647.307 181.007L650.776 184.476L655.652 179.598L652.184 176.13L647.307 181.007Z" fill="white"/>
<path fill-rule="evenodd" clip-rule="evenodd" d="M652.035 187.645L637.253 202.425L629.353 194.525L644.134 179.745L652.035 187.645Z" fill="white"/>
<path fill-rule="evenodd" clip-rule="evenodd" d="M635.64 204.039L627.593 204.186L627.741 196.139L635.64 204.039Z" fill="white"/>
<path fill-rule="evenodd" clip-rule="evenodd" d="M757.609 109.03L722.75 74.17L751.151 45.769L786.01 80.6292L757.609 109.03Z" fill="white"/>
<path fill-rule="evenodd" clip-rule="evenodd" d="M760.805 47.2168L757.616 50.4048L781.373 74.1622L784.562 70.9742L760.805 47.2168Z" fill="white"/>
<path fill-rule="evenodd" clip-rule="evenodd" d="M766.476 51.0259L772.999 57.5487L781.72 48.8271L775.198 42.3042L766.476 51.0259Z" fill="white"/>
<path fill-rule="evenodd" clip-rule="evenodd" d="M765.228 49.8113L758.089 42.6724L766.844 33.9175L773.983 41.056L765.228 49.8113Z" fill="white"/>
<path fill-rule="evenodd" clip-rule="evenodd" d="M774.23 58.7799L782.952 50.0586L789.475 56.5817L780.753 65.3032L774.23 58.7799Z" fill="white"/>
<path fill-rule="evenodd" clip-rule="evenodd" d="M789.106 73.6895L781.968 66.5513L790.723 57.7959L797.861 64.9344L789.106 73.6895Z" fill="white"/>
<path fill-rule="evenodd" clip-rule="evenodd" d="M775.128 32.8936L771.389 36.6328L795.147 60.3906L798.884 56.6508L775.128 32.8936Z" fill="white"/>
<path fill-rule="evenodd" clip-rule="evenodd" d="M805.352 61.2877L770.492 26.4282L785.996 10.9238L820.855 45.7836L805.352 61.2877Z" fill="white"/>
<path fill-rule="evenodd" clip-rule="evenodd" d="M814.7 30.7892L800.99 17.0786L797.484 20.5828L811.197 34.2943L814.7 30.7892Z" fill="white"/>
<path fill-rule="evenodd" clip-rule="evenodd" d="M807.172 21.4309L816.366 12.2383L819.541 15.4145L810.348 24.6072L807.172 21.4309Z" fill="white"/>
<path fill-rule="evenodd" clip-rule="evenodd" d="M789.822 104.168L765.698 104.17L787.624 82.2441L789.822 82.2437L789.822 104.168Z" fill="white"/>
<path fill-rule="evenodd" clip-rule="evenodd" d="M792.104 86.8097L792.105 82.2432H799.012V86.8092L792.104 86.8097Z" fill="white"/>
<path fill-rule="evenodd" clip-rule="evenodd" d="M792.104 97.862V88.5512L799.012 88.5508V97.8614L792.104 97.862Z" fill="white"/>
<path fill-rule="evenodd" clip-rule="evenodd" d="M799.012 104.169L792.104 104.17V99.603H799.012V104.169Z" fill="white"/>
<path fill-rule="evenodd" clip-rule="evenodd" d="M801.295 102.142V86.0601H815.735V102.142H801.295Z" fill="white"/>
<path fill-rule="evenodd" clip-rule="evenodd" d="M768.877 0L768.877 24.813L784.382 9.30878L784.381 0.00036621L768.877 0Z" fill="white"/>
<path fill-rule="evenodd" clip-rule="evenodd" d="M749.515 102.764L729.015 82.2646L674.944 136.336L695.443 156.835L749.515 102.764Z" fill="white"/>
<path fill-rule="evenodd" clip-rule="evenodd" d="M27.4903 46.2569C22.4536 46.2569 18.8276 47.8543 16.6122 51.0502C14.396 54.2472 13.2947 59.5117 13.2947 66.8171C13.2947 73.1692 14.3561 77.6407 16.478 80.2324C18.6 82.8243 22.2658 84.1269 27.4903 84.1269H47.459V94.1995H26.8988C22.3602 94.1995 18.8013 93.8102 16.1958 93.0446C13.6041 92.2653 11.1728 90.9625 8.89038 89.1228C5.92199 86.7596 3.7068 83.6843 2.21521 79.8968C0.738409 76.0967 0 71.5707 0 66.2927C0 56.0598 2.2152 48.512 6.64785 43.6514C11.0794 38.7762 17.9412 36.3458 27.248 36.3458H47.459V46.2569H27.4903ZM52.6835 64.6816C52.6835 54.7434 55.0603 47.3445 59.8275 42.4966C64.5821 37.6476 71.8205 35.2173 81.5573 35.2173C91.3602 35.2173 98.6122 37.6749 103.312 42.5764C108.026 47.4788 110.377 55.0391 110.377 65.2722C110.377 75.5061 108.026 83.0801 103.312 88.0089C98.6122 92.9365 91.3602 95.4077 81.5573 95.4077C71.6464 95.4077 64.3535 92.924 59.6807 87.968C55.0204 83.0131 52.6835 75.2501 52.6835 64.6816ZM81.5573 45.1282C76.3328 45.1282 72.4383 46.753 69.8465 50.0034C67.2684 53.2528 65.9783 58.1817 65.9783 64.7623C65.9783 71.8927 67.2275 77.1172 69.7385 80.4338C72.2369 83.7515 76.1713 85.4171 81.5573 85.4171C86.848 85.4171 90.7697 83.7651 93.3342 80.4747C95.8862 77.1843 97.1617 72.1213 97.1617 65.2722C97.1617 58.3967 95.8862 53.3201 93.3342 50.0433C90.7697 46.7666 86.848 45.1282 81.5573 45.1282ZM118.676 36.3458H136.551L151.309 80.7432L166.068 36.3458H183.863V94.1995H171.937L172.918 49.1298L158.078 94.1995H145.172L129.863 48.6598L131.085 94.1995H118.676V36.3458ZM195.789 36.3458H213.663L228.422 80.7432L243.18 36.3458H260.975V94.1995H249.049L250.03 49.1298L235.19 94.1995H222.285L206.975 48.6598L208.197 94.1995H195.789V36.3458ZM269.194 64.6816C269.194 54.7434 271.571 47.3445 276.338 42.4966C281.093 37.6476 288.331 35.2173 298.068 35.2173C307.871 35.2173 315.123 37.6749 319.823 42.5764C324.536 47.4788 326.887 55.0391 326.887 65.2722C326.887 75.5061 324.536 83.0801 319.823 88.0089C315.123 92.9365 307.871 95.4077 298.068 95.4077C288.157 95.4077 280.864 92.924 276.191 87.968C271.531 83.0131 269.194 75.2501 269.194 64.6816ZM298.068 45.1282C292.843 45.1282 288.949 46.753 286.357 50.0034C283.779 53.2528 282.489 58.1817 282.489 64.7623C282.489 71.8927 283.738 77.1172 286.249 80.4338C288.747 83.7515 292.682 85.4171 298.068 85.4171C303.358 85.4171 307.28 83.7651 309.845 80.4747C312.397 77.1843 313.672 72.1213 313.672 65.2722C313.672 58.3967 312.397 53.3201 309.845 50.0433C307.28 46.7666 303.358 45.1282 298.068 45.1282ZM335.187 36.3458H350.59L374.294 77.9091L373.702 36.3458H386.112V94.1995H372.01L347.125 50.4325L347.676 94.1995H335.187V36.3458ZM456.146 46.6595H441.226V61.2434H456.146C460.188 61.2434 462.995 60.6927 464.566 59.5914C466.137 58.4901 466.93 56.5967 466.93 53.9117C466.93 51.2517 466.165 49.3857 464.633 48.2979C463.089 47.2102 460.269 46.6595 456.146 46.6595ZM429.059 36.3458H459.02C466.003 36.3458 471.12 37.7556 474.37 40.5624C477.633 43.3693 479.258 47.7735 479.258 53.75C479.258 58.1952 478.251 61.8212 476.25 64.6282C474.236 67.435 471.348 69.2474 467.561 70.0666L481.998 94.1995H468.313L455.555 71.4763H441.226V94.1995H429.059V36.3458ZM512.054 47.8406L503.592 70.1075H520.822L512.054 47.8406ZM506.077 36.3458H518.969L543.639 94.1995H530.103L524.797 80.4212H499.658L494.5 94.1995H481.595L506.077 36.3458ZM560.493 94.1995H547.763V36.3458H560.493V94.1995ZM595.478 94.1995C590.066 94.1995 586.05 93.7432 583.431 92.8432C580.8 91.9433 578.449 90.372 576.381 88.1432C574.46 86.1419 573.118 83.8857 572.326 81.3747C571.533 78.8625 571.144 75.3173 571.144 70.7515V36.3458H583.311V70.3624C583.311 73.7462 583.459 76.1228 583.767 77.5064C584.063 78.8899 584.586 79.9912 585.325 80.8376C586.467 82.1939 587.89 83.1609 589.568 83.7377C591.248 84.3157 593.571 84.6105 596.538 84.6105H610.868V94.1995H595.478Z" fill="white"/>
<path fill-rule="evenodd" clip-rule="evenodd" d="M1.85962 131.521H16.6127L30.27 169.426L44.0002 131.521H58.7531V182.645H48.7477V146.785L35.8205 182.645H24.7923L12.0844 146.785V182.645H1.85962V131.521ZM64.7418 138.825H74.6744V164.338C74.6744 166.322 74.942 167.99 75.4775 169.329C76.0135 170.668 76.7436 171.726 77.6689 172.53C78.5937 173.333 79.6773 173.905 80.9189 174.246C82.1604 174.587 83.4871 174.758 84.8991 174.758C86.2624 174.758 87.5648 174.587 88.8064 174.246C90.048 173.905 91.1312 173.333 92.0564 172.53C92.9816 171.726 93.7119 170.668 94.2473 169.329C94.7829 167.99 95.0509 166.322 95.0509 164.338V138.825H104.983V164.387C104.983 168.038 104.448 171.081 103.377 173.516C102.306 175.95 100.857 177.91 99.0312 179.395C97.2052 180.88 95.075 181.939 92.6407 182.572C90.2063 183.205 87.6256 183.522 84.8991 183.522C82.1239 183.522 79.5068 183.205 77.0479 182.572C74.589 181.939 72.4467 180.88 70.6208 179.395C68.795 177.91 67.3587 175.95 66.3118 173.516C65.2652 171.081 64.7418 168.038 64.7418 164.387V138.825ZM113.017 138.825H138.871C140.819 138.825 142.657 139.056 144.385 139.519C146.114 139.981 147.635 140.748 148.95 141.819C150.265 142.89 151.299 144.278 152.054 145.982C152.809 147.686 153.186 149.78 153.186 152.263C153.186 154.357 152.955 156.17 152.492 157.704C152.029 159.238 151.397 160.54 150.593 161.611C149.79 162.682 148.816 163.559 147.672 164.241C146.528 164.922 145.274 165.434 143.911 165.774L153.697 182.645H142.158L133.175 166.286H122.95V182.645H113.017V138.825ZM138.871 157.522C140.088 157.522 141.123 157.144 141.975 156.402C142.827 155.659 143.253 154.284 143.253 152.263C143.253 150.535 142.827 149.329 141.975 148.636C141.123 147.942 140.088 147.589 138.871 147.589H122.95V157.522H138.871ZM159.613 138.825H172.978L183.86 168.915L194.815 138.825H208.18V182.645H198.467V156.134L188.899 182.645H178.821L169.545 156.28V182.645H159.613V138.825ZM230.675 138.825H240.68L260.253 182.645H249.225L245.574 174.173H225.781C225.246 175.439 224.637 176.851 223.956 178.409C223.274 179.967 222.665 181.379 222.13 182.645H211.102L230.675 138.825ZM241.922 165.409C241.386 164.107 240.863 162.865 240.352 161.709C239.841 160.54 239.329 159.372 238.818 158.215C238.307 157.047 237.795 155.878 237.284 154.685C236.773 153.505 236.225 152.227 235.641 150.875L229.36 165.409H241.922ZM263.175 138.825H275.225L291.001 167.527V138.825H300.933V182.645H288.882L273.107 153.943V182.645H263.175V138.825ZM346.214 131.521H371.045C374.064 131.521 376.9 131.972 379.554 132.873C382.208 133.773 384.533 135.222 386.529 137.218C388.525 139.214 390.095 141.843 391.239 145.106C392.384 148.368 392.956 152.36 392.956 157.083C392.956 161.806 392.384 165.799 391.239 169.061C390.095 172.323 388.525 174.952 386.529 176.949C384.533 178.945 382.208 180.393 379.554 181.294C376.9 182.195 374.064 182.645 371.045 182.645H346.214V131.521ZM369.585 173.881C371.386 173.881 373.091 173.613 374.697 173.078C376.304 172.542 377.704 171.629 378.897 170.339C380.089 169.049 381.027 167.332 381.709 165.19C382.39 163.048 382.731 160.346 382.731 157.083C382.731 153.821 382.39 151.119 381.709 148.976C381.027 146.834 380.089 145.118 378.897 143.828C377.704 142.537 376.304 141.625 374.697 141.089C373.091 140.553 371.386 140.285 369.585 140.285H356.439V173.881H369.585ZM399.529 138.825H409.461V182.645H399.529V138.825ZM434.877 182.645C432.296 182.645 429.862 182.268 427.573 181.513C425.285 180.758 423.289 179.517 421.585 177.788C419.881 176.06 418.53 173.796 417.531 170.996C416.534 168.196 416.034 164.776 416.034 160.735C416.034 156.694 416.534 153.273 417.531 150.474C418.53 147.674 419.881 145.41 421.585 143.682C423.289 141.953 425.285 140.711 427.573 139.957C429.862 139.202 432.296 138.825 434.877 138.825H451.383V147.589H436.119C433.781 147.589 431.7 148.246 429.874 149.549C428.048 150.851 426.843 153.115 426.259 156.353H451.383V165.117H426.259C426.551 166.76 427.014 168.136 427.647 169.243C428.279 170.351 429.022 171.264 429.874 171.958C430.726 172.664 431.688 173.151 432.759 173.443C433.83 173.735 434.95 173.881 436.119 173.881H451.383V182.645H434.877ZM460.293 173.881H483.079C484.491 173.881 485.684 173.564 486.658 172.944C487.632 172.311 488.119 171.155 488.119 169.463C488.119 167.819 487.632 166.687 486.658 166.054C485.684 165.434 484.491 165.117 483.079 165.117H472.781C470.688 165.117 468.801 164.886 467.121 164.423C465.442 163.961 464.005 163.218 462.812 162.196C461.619 161.173 460.694 159.822 460.037 158.142C459.38 156.462 459.051 154.405 459.051 151.971C459.051 149.488 459.38 147.406 460.037 145.726C460.694 144.047 461.619 142.696 462.812 141.673C464.005 140.651 465.442 139.92 467.121 139.482C468.801 139.044 470.688 138.825 472.781 138.825H496.81V147.589H474.023C472.611 147.589 471.418 147.905 470.444 148.526C469.471 149.159 468.984 150.316 468.984 152.007C468.984 153.651 469.471 154.782 470.444 155.416C471.418 156.037 472.611 156.353 474.023 156.353H484.321C486.415 156.353 488.301 156.584 489.981 157.047C491.661 157.509 493.097 158.252 494.29 159.274C495.483 160.297 496.408 161.648 497.065 163.328C497.723 165.008 498.051 167.064 498.051 169.499C498.051 171.982 497.723 174.064 497.065 175.743C496.408 177.423 495.483 178.774 494.29 179.797C493.097 180.819 491.661 181.549 489.981 181.988C488.301 182.426 486.415 182.645 484.321 182.645H460.293V173.881ZM522.371 182.645C519.791 182.645 517.356 182.268 515.068 181.513C512.78 180.758 510.783 179.517 509.079 177.788C507.375 176.06 506.024 173.796 505.026 170.996C504.028 168.196 503.529 164.776 503.529 160.735C503.529 156.694 504.028 153.273 505.026 150.474C506.024 147.674 507.375 145.41 509.079 143.682C510.783 141.953 512.78 140.711 515.068 139.957C517.356 139.202 519.791 138.825 522.371 138.825H538.877V147.589H523.613C521.276 147.589 519.194 148.246 517.368 149.549C515.542 150.851 514.338 153.115 513.753 156.353H538.877V165.117H513.753C514.045 166.76 514.508 168.136 515.141 169.243C515.774 170.351 516.516 171.264 517.368 171.958C518.221 172.664 519.182 173.151 520.253 173.443C521.324 173.735 522.444 173.881 523.613 173.881H538.877V182.645H522.371ZM546.911 138.825H556.843V164.91C556.843 166.614 557.111 168.038 557.646 169.182C558.182 170.327 558.913 171.24 559.838 171.946C560.763 172.652 561.846 173.151 563.088 173.443C564.329 173.735 565.656 173.881 567.068 173.881H578.68V182.645H567.068C564.341 182.645 561.749 182.353 559.29 181.769C556.831 181.184 554.689 180.199 552.863 178.811C551.037 177.423 549.588 175.61 548.517 173.37C547.446 171.13 546.911 168.331 546.911 164.971V138.825Z" fill="white"/>
<path fill-rule="evenodd" clip-rule="evenodd" d="M1.47021 199.11H609.733V203.91H1.47021V199.11Z" fill="white"/>
</svg>
