<svg width="616" height="154" viewBox="0 0 616 154" fill="none" xmlns="http://www.w3.org/2000/svg">
<path fill-rule="evenodd" clip-rule="evenodd" d="M546.867 66.1755L558.122 77.4311L545.163 90.3892L533.446 78.6722L546.404 65.7139L546.867 66.1755Z" fill="#1500B3"/>
<path fill-rule="evenodd" clip-rule="evenodd" d="M556.275 77.4307L546.405 67.5605L535.293 78.6718L545.163 88.5418L556.275 77.4307Z" fill="#1500B3"/>
<path fill-rule="evenodd" clip-rule="evenodd" d="M502.801 132.565L496.921 138.446L485.389 126.915L491.271 121.034L502.801 132.565Z" fill="#1500B3"/>
<path fill-rule="evenodd" clip-rule="evenodd" d="M518.976 116.39L515.818 119.548L504.287 108.018L507.445 104.859L518.976 116.39Z" fill="#1500B3"/>
<path fill-rule="evenodd" clip-rule="evenodd" d="M490.033 118.426L505.408 133.802L517.054 122.155L501.679 106.781L490.033 118.426Z" fill="#1500B3"/>
<path fill-rule="evenodd" clip-rule="evenodd" d="M488.973 139.308L490.994 141.329L494.712 137.611L492.69 135.588L488.973 139.308Z" fill="#1500B3"/>
<path fill-rule="evenodd" clip-rule="evenodd" d="M482.505 132.841L484.527 134.862L488.246 131.144L486.225 129.123L482.505 132.841Z" fill="#1500B3"/>
<path fill-rule="evenodd" clip-rule="evenodd" d="M485.48 135.756L488.083 138.357L491.74 134.699L489.138 132.098L485.48 135.756Z" fill="#1500B3"/>
<path fill-rule="evenodd" clip-rule="evenodd" d="M489.027 140.734L477.941 151.819L472.016 145.894L483.102 134.809L489.027 140.734Z" fill="#1500B3"/>
<path fill-rule="evenodd" clip-rule="evenodd" d="M476.731 153.029L470.695 153.14L470.807 147.104L476.731 153.029Z" fill="#1500B3"/>
<path fill-rule="evenodd" clip-rule="evenodd" d="M568.208 81.7724L542.063 55.6274L563.364 34.3267L589.509 60.4719L568.208 81.7724Z" fill="#1500B3"/>
<path fill-rule="evenodd" clip-rule="evenodd" d="M570.605 35.4126L568.213 37.8036L586.031 55.6217L588.423 53.2307L570.605 35.4126Z" fill="#1500B3"/>
<path fill-rule="evenodd" clip-rule="evenodd" d="M574.858 38.2693L579.75 43.1614L586.291 36.6202L581.399 31.728L574.858 38.2693Z" fill="#1500B3"/>
<path fill-rule="evenodd" clip-rule="evenodd" d="M573.922 37.3584L568.568 32.0042L575.134 25.438L580.489 30.7919L573.922 37.3584Z" fill="#1500B3"/>
<path fill-rule="evenodd" clip-rule="evenodd" d="M580.674 44.085L587.215 37.5439L592.107 42.4362L585.566 48.9774L580.674 44.085Z" fill="#1500B3"/>
<path fill-rule="evenodd" clip-rule="evenodd" d="M591.83 55.2674L586.477 49.9138L593.043 43.3472L598.397 48.7011L591.83 55.2674Z" fill="#1500B3"/>
<path fill-rule="evenodd" clip-rule="evenodd" d="M581.347 24.6704L578.542 27.4748L596.361 45.2932L599.164 42.4884L581.347 24.6704Z" fill="#1500B3"/>
<path fill-rule="evenodd" clip-rule="evenodd" d="M604.015 45.9659L577.87 19.8212L589.498 8.19287L615.643 34.3378L604.015 45.9659Z" fill="#1500B3"/>
<path fill-rule="evenodd" clip-rule="evenodd" d="M611.026 23.0921L600.743 12.8091L598.114 15.4373L608.399 25.7209L611.026 23.0921Z" fill="#1500B3"/>
<path fill-rule="evenodd" clip-rule="evenodd" d="M605.38 16.0732L612.275 9.17871L614.656 11.5609L607.762 18.4554L605.38 16.0732Z" fill="#1500B3"/>
<path fill-rule="evenodd" clip-rule="evenodd" d="M592.367 78.1267L574.274 78.1281L590.719 61.6834L592.367 61.6831L592.367 78.1267Z" fill="#1500B3"/>
<path fill-rule="evenodd" clip-rule="evenodd" d="M594.079 65.1075L594.08 61.6826H599.26V65.1071L594.079 65.1075Z" fill="#1500B3"/>
<path fill-rule="evenodd" clip-rule="evenodd" d="M594.079 73.3965V66.4134L599.26 66.4131V73.3961L594.079 73.3965Z" fill="#1500B3"/>
<path fill-rule="evenodd" clip-rule="evenodd" d="M599.26 78.1271L594.079 78.1275V74.7026H599.26V78.1271Z" fill="#1500B3"/>
<path fill-rule="evenodd" clip-rule="evenodd" d="M600.972 76.607V64.5454H611.802V76.607H600.972Z" fill="#1500B3"/>
<path fill-rule="evenodd" clip-rule="evenodd" d="M576.659 0L576.659 18.6098L588.287 6.9816L588.287 0.000274658L576.659 0Z" fill="#1500B3"/>
<path fill-rule="evenodd" clip-rule="evenodd" d="M562.137 77.0729L546.762 61.6982L506.209 102.252L521.583 117.626L562.137 77.0729Z" fill="#1500B3"/>
<path fill-rule="evenodd" clip-rule="evenodd" d="M20.6178 34.6928C16.8402 34.6928 14.1207 35.8909 12.4592 38.2878C10.797 40.6856 9.97101 44.6339 9.97101 50.113C9.97101 54.8771 10.7671 58.2307 12.3585 60.1745C13.95 62.1184 16.6994 63.0954 20.6178 63.0954H35.5943V70.6498H20.1741C16.7702 70.6498 14.101 70.3579 12.1469 69.7837C10.2031 69.1992 8.3796 68.2221 6.6678 66.8423C4.4415 65.0699 2.78011 62.7634 1.66141 59.9228C0.553807 57.0727 0 53.6782 0 49.7197C0 42.045 1.6614 36.3841 4.9859 32.7387C8.3096 29.0823 13.4559 27.2595 20.436 27.2595H35.5943V34.6928H20.6178ZM39.5127 48.5114C39.5127 41.0577 41.2953 35.5085 44.8707 31.8726C48.4367 28.2358 53.8655 26.4131 61.1681 26.4131C68.5203 26.4131 73.9593 28.2563 77.4844 31.9324C81.0197 35.6092 82.7826 41.2795 82.7826 48.9543C82.7826 56.6298 81.0197 62.3103 77.4844 66.0069C73.9593 69.7026 68.5203 71.556 61.1681 71.556C53.7349 71.556 48.2652 69.6932 44.7606 65.9762C41.2654 62.26 39.5127 56.4378 39.5127 48.5114ZM61.1681 33.8463C57.2497 33.8463 54.3288 35.0649 52.385 37.5027C50.4514 39.9398 49.4838 43.6364 49.4838 48.5719C49.4838 53.9197 50.4207 57.8381 52.304 60.3255C54.1778 62.8138 57.1286 64.063 61.1681 64.063C65.1361 64.063 68.0774 62.824 70.0008 60.3562C71.9148 57.8884 72.8714 54.0912 72.8714 48.9543C72.8714 43.7977 71.9148 39.9902 70.0008 37.5326C68.0774 35.0751 65.1361 33.8463 61.1681 33.8463ZM89.0075 27.2595H102.413L113.482 60.5576L124.552 27.2595H137.897V70.6498H128.953L129.689 36.8475L118.559 70.6498H108.88L97.3973 36.495L98.3138 70.6498H89.0075V27.2595ZM146.842 27.2595H160.247L171.316 60.5576L182.386 27.2595H195.732V70.6498H186.787L187.523 36.8475L176.393 70.6498H166.714L155.232 36.495L156.148 70.6498H146.842V27.2595ZM201.896 48.5114C201.896 41.0577 203.679 35.5085 207.254 31.8726C210.82 28.2358 216.249 26.4131 223.551 26.4131C230.904 26.4131 236.342 28.2563 239.867 31.9324C243.403 35.6092 245.166 41.2795 245.166 48.9543C245.166 56.6298 243.403 62.3103 239.867 66.0069C236.342 69.7026 230.904 71.556 223.551 71.556C216.118 71.556 210.648 69.6932 207.144 65.9762C203.649 62.26 201.896 56.4378 201.896 48.5114ZM223.551 33.8463C219.633 33.8463 216.712 35.0649 214.768 37.5027C212.834 39.9398 211.867 43.6364 211.867 48.5719C211.867 53.9197 212.804 57.8381 214.687 60.3255C216.561 62.8138 219.512 64.063 223.551 64.063C227.519 64.063 230.461 62.824 232.384 60.3562C234.298 57.8884 235.255 54.0912 235.255 48.9543C235.255 43.7977 234.298 39.9902 232.384 37.5326C230.461 35.0751 227.519 33.8463 223.551 33.8463ZM251.391 27.2595H262.943L280.721 58.432L280.277 27.2595H289.584V70.6498H279.008L260.345 37.8245L260.758 70.6498H251.391V27.2595ZM342.11 34.9948H330.92V45.9327H342.11C345.142 45.9327 347.247 45.5197 348.425 44.6937C349.604 43.8677 350.198 42.4477 350.198 40.4339C350.198 38.4389 349.624 37.0394 348.476 36.2236C347.318 35.4078 345.202 34.9948 342.11 34.9948ZM321.795 27.2595H344.265C349.503 27.2595 353.34 28.3168 355.778 30.4219C358.226 32.5271 359.444 35.8303 359.444 40.3127C359.444 43.6466 358.689 46.3661 357.188 48.4713C355.678 50.5764 353.512 51.9357 350.671 52.5501L361.499 70.6498H351.235L341.667 53.6074H330.92V70.6498H321.795V27.2595ZM384.041 35.8806L377.695 52.5808H390.617L384.041 35.8806ZM379.559 27.2595H389.227L407.73 70.6498H397.578L393.599 60.3161H374.744L370.876 70.6498H361.197L379.559 27.2595ZM420.371 70.6498H410.823V27.2595H420.371V70.6498ZM446.609 70.6498C442.55 70.6498 439.539 70.3076 437.574 69.6326C435.601 68.9577 433.838 67.7792 432.286 66.1076C430.846 64.6066 429.839 62.9145 429.245 61.0312C428.65 59.1471 428.359 56.4882 428.359 53.0638V27.2595H437.484V52.772C437.484 55.3098 437.595 57.0923 437.826 58.13C438.048 59.1676 438.441 59.9936 438.994 60.6284C439.851 61.6456 440.919 62.3709 442.177 62.8035C443.437 63.237 445.179 63.4581 447.405 63.4581H458.152V70.6498H446.609Z" fill="#1500B3"/>
<path fill-rule="evenodd" clip-rule="evenodd" d="M1.39453 98.6416H12.4593L22.7023 127.07L33 98.6416H44.0647V136.984H36.5606V110.09L26.8652 136.984H18.594L9.06314 110.09V136.984H1.39453V98.6416ZM48.5562 104.119H56.0057V123.254C56.0057 124.742 56.2064 125.993 56.608 126.997C57.01 128.001 57.5576 128.795 58.2516 129.398C58.9452 130 59.7579 130.43 60.6891 130.685C61.6202 130.941 62.6152 131.069 63.6742 131.069C64.6967 131.069 65.6735 130.941 66.6047 130.685C67.5359 130.43 68.3483 130 69.0422 129.398C69.7361 128.795 70.2838 128.001 70.6854 126.997C71.0871 125.993 71.2881 124.742 71.2881 123.254V104.119H78.7375V123.29C78.7375 126.029 78.3359 128.312 77.5325 130.137C76.7292 131.963 75.6427 133.433 74.2733 134.547C72.9038 135.661 71.3062 136.455 69.4804 136.93C67.6546 137.404 65.7191 137.642 63.6742 137.642C61.5928 137.642 59.63 137.404 57.7858 136.93C55.9416 136.455 54.3349 135.661 52.9655 134.547C51.5961 133.433 50.5189 131.963 49.7337 130.137C48.9488 128.312 48.5562 126.029 48.5562 123.29V104.119ZM84.7629 104.119H104.154C105.614 104.119 106.993 104.293 108.289 104.639C109.585 104.986 110.727 105.561 111.712 106.365C112.699 107.168 113.474 108.209 114.041 109.487C114.607 110.765 114.89 112.336 114.89 114.198C114.89 115.768 114.716 117.128 114.369 118.279C114.022 119.429 113.548 120.406 112.945 121.209C112.342 122.012 111.612 122.67 110.754 123.181C109.896 123.692 108.955 124.076 107.933 124.331L115.273 136.984H106.618L99.8809 124.715H92.2123V136.984H84.7629V104.119ZM104.154 118.142C105.066 118.142 105.842 117.858 106.481 117.302C107.121 116.745 107.44 115.713 107.44 114.198C107.44 112.902 107.121 111.998 106.481 111.477C105.842 110.957 105.066 110.692 104.154 110.692H92.2123V118.142H104.154ZM119.71 104.119H129.733L137.895 126.687L146.111 104.119H156.135V136.984H148.85V117.101L141.675 136.984H134.116L127.159 117.211V136.984H119.71V104.119ZM173.006 104.119H180.51L195.19 136.984H186.919L184.18 130.631H169.336C168.935 131.58 168.478 132.639 167.967 133.807C167.455 134.976 166.999 136.035 166.597 136.984H158.326L173.006 104.119ZM181.442 124.057C181.04 123.081 180.647 122.149 180.264 121.282C179.881 120.406 179.497 119.529 179.114 118.662C178.73 117.786 178.347 116.909 177.963 116.015C177.58 115.129 177.169 114.17 176.731 113.157L172.02 124.057H181.442ZM197.381 104.119H206.419L218.251 125.646V104.119H225.7V136.984H216.662L204.831 115.458V136.984H197.381V104.119ZM259.661 98.6416H278.284C280.548 98.6416 282.676 98.9792 284.666 99.655C286.656 100.33 288.4 101.417 289.897 102.914C291.394 104.411 292.572 106.383 293.43 108.83C294.288 111.276 294.717 114.271 294.717 117.813C294.717 121.355 294.288 124.35 293.43 126.796C292.572 129.243 291.394 131.215 289.897 132.712C288.4 134.209 286.656 135.296 284.666 135.971C282.676 136.646 280.548 136.984 278.284 136.984H259.661V98.6416ZM277.189 130.411C278.54 130.411 279.818 130.211 281.023 129.809C282.228 129.407 283.278 128.723 284.173 127.755C285.067 126.787 285.77 125.5 286.282 123.893C286.793 122.286 287.049 120.26 287.049 117.813C287.049 115.366 286.793 113.339 286.282 111.733C285.77 110.126 285.067 108.839 284.173 107.871C283.278 106.904 282.228 106.219 281.023 105.817C279.818 105.416 278.54 105.215 277.189 105.215H267.329V130.411H277.189ZM299.647 104.119H307.096V136.984H299.647V104.119ZM326.158 136.984C324.223 136.984 322.397 136.701 320.681 136.135C318.964 135.569 317.467 134.638 316.189 133.342C314.911 132.046 313.898 130.347 313.149 128.248C312.401 126.148 312.026 123.583 312.026 120.552C312.026 117.521 312.401 114.956 313.149 112.856C313.898 110.756 314.911 109.058 316.189 107.762C317.467 106.465 318.964 105.534 320.681 104.968C322.397 104.402 324.223 104.119 326.158 104.119H338.537V110.692H327.089C325.336 110.692 323.775 111.185 322.406 112.162C321.037 113.139 320.133 114.837 319.695 117.265H338.537V123.838H319.695C319.914 125.071 320.261 126.102 320.736 126.933C321.21 127.764 321.767 128.449 322.406 128.969C323.045 129.498 323.766 129.864 324.57 130.083C325.373 130.302 326.213 130.411 327.089 130.411H338.537V136.984H326.158ZM345.22 130.411H362.31C363.369 130.411 364.263 130.174 364.994 129.708C365.724 129.234 366.09 128.367 366.09 127.098C366.09 125.865 365.724 125.016 364.994 124.541C364.263 124.076 363.369 123.838 362.31 123.838H354.587C353.016 123.838 351.601 123.665 350.341 123.318C349.082 122.971 348.004 122.414 347.11 121.647C346.215 120.881 345.521 119.867 345.028 118.607C344.535 117.347 344.289 115.804 344.289 113.979C344.289 112.116 344.535 110.555 345.028 109.295C345.521 108.036 346.215 107.022 347.11 106.255C348.004 105.488 349.082 104.941 350.341 104.612C351.601 104.283 353.016 104.119 354.587 104.119H372.608V110.692H355.518C354.459 110.692 353.564 110.93 352.834 111.395C352.103 111.87 351.738 112.737 351.738 114.006C351.738 115.238 352.103 116.087 352.834 116.562C353.564 117.028 354.459 117.265 355.518 117.265H363.241C364.811 117.265 366.227 117.439 367.486 117.786C368.746 118.133 369.823 118.689 370.718 119.456C371.613 120.223 372.307 121.237 372.799 122.496C373.292 123.756 373.539 125.299 373.539 127.125C373.539 128.987 373.292 130.548 372.799 131.808C372.307 133.068 371.613 134.081 370.718 134.848C369.823 135.615 368.746 136.163 367.486 136.491C366.227 136.82 364.811 136.984 363.241 136.984H345.22V130.411ZM391.779 136.984C389.844 136.984 388.018 136.701 386.301 136.135C384.585 135.569 383.088 134.638 381.81 133.342C380.532 132.046 379.518 130.347 378.77 128.248C378.021 126.148 377.647 123.583 377.647 120.552C377.647 117.521 378.021 114.956 378.77 112.856C379.518 110.756 380.532 109.058 381.81 107.762C383.088 106.465 384.585 105.534 386.301 104.968C388.018 104.402 389.844 104.119 391.779 104.119H404.158V110.692H392.71C390.957 110.692 389.396 111.185 388.027 112.162C386.657 113.139 385.754 114.837 385.315 117.265H404.158V123.838H385.315C385.535 125.071 385.882 126.102 386.356 126.933C386.831 127.764 387.388 128.449 388.027 128.969C388.666 129.498 389.387 129.864 390.19 130.083C390.994 130.302 391.834 130.411 392.71 130.411H404.158V136.984H391.779ZM410.184 104.119H417.633V123.683C417.633 124.961 417.834 126.029 418.235 126.887C418.637 127.746 419.185 128.43 419.879 128.96C420.573 129.489 421.385 129.864 422.316 130.083C423.248 130.302 424.243 130.411 425.302 130.411H434.011V136.984H425.302C423.257 136.984 421.312 136.765 419.468 136.327C417.624 135.889 416.017 135.15 414.648 134.109C413.279 133.068 412.192 131.708 411.389 130.028C410.585 128.348 410.184 126.248 410.184 123.729V104.119Z" fill="#1500B3"/>
<path fill-rule="evenodd" clip-rule="evenodd" d="M1.10254 149.333H457.301V152.933H1.10254V149.333Z" fill="#1500B3"/>
</svg>
