<?xml version="1.0" encoding="UTF-8" standalone="no"?>
<svg
   version="1.1"
   width="13.1890in"
   height="10.6299in"
   viewBox="0 0 949.6063 765.3543"
   id="svg31"
   sodipodi:docname="logo.svg"
   inkscape:version="1.4.2 (f4327f4, 2025-05-13)"
   xmlns:inkscape="http://www.inkscape.org/namespaces/inkscape"
   xmlns:sodipodi="http://sodipodi.sourceforge.net/DTD/sodipodi-0.dtd"
   xmlns="http://www.w3.org/2000/svg"
   xmlns:svg="http://www.w3.org/2000/svg">
  <defs
     id="defs31" />
  <sodipodi:namedview
     id="namedview31"
     pagecolor="#ffffff"
     bordercolor="#000000"
     borderopacity="0.25"
     inkscape:showpageshadow="2"
     inkscape:pageopacity="0.0"
     inkscape:pagecheckerboard="0"
     inkscape:deskcolor="#d1d1d1"
     inkscape:document-units="in"
     inkscape:zoom="1"
     inkscape:cx="584.5"
     inkscape:cy="633.5"
     inkscape:window-width="1920"
     inkscape:window-height="1017"
     inkscape:window-x="-8"
     inkscape:window-y="-8"
     inkscape:window-maximized="1"
     inkscape:current-layer="svg31"
     showguides="true">
    <sodipodi:guide
       position="-207.17763,25.6211"
       orientation="1,0"
       id="guide1"
       inkscape:locked="false" />
    <sodipodi:guide
       position="-208.5057,11.012365"
       orientation="1,0"
       id="guide2"
       inkscape:locked="false" />
  </sodipodi:namedview>
  <g
     id="Layer1000">
    <g
       id="Layer1001">
      <path
         d="  M728.3877,434.6047 L739.6428,445.8603 L726.6844,458.8184 L714.9674,447.1014 L727.9256,434.1431 L728.3877,434.6047 Z"
         style="fill-rule: evenodd; fill: #ffffff; "
         id="path2" />
      <path
         d="  M737.7957,445.8603 L727.9256,435.9901 L716.8145,447.1014 L726.6844,456.9714 L737.7957,445.8603 Z"
         style="fill-rule: evenodd; fill: #ffffff; "
         id="path3" />
      <path
         d="  M684.3218,500.9950 L678.4417,506.8755 L666.9100,495.3446 L672.7914,489.4637 L684.3218,500.9950 Z"
         style="fill-rule: evenodd; fill: #ffffff; "
         id="path4" />
      <path
         d="  M700.4968,484.8198 L697.3384,487.9775 L685.8080,476.4471 L688.9655,473.2887 L700.4968,484.8198 Z"
         style="fill-rule: evenodd; fill: #ffffff; "
         id="path5" />
      <path
         d="  M671.5543,486.8554 L686.9292,502.2312 L698.5755,490.5849 L683.1997,475.2109 L671.5543,486.8554 Z"
         style="fill-rule: evenodd; fill: #ffffff; "
         id="path6" />
      <path
         d="  M670.4934,507.7372 L672.5151,509.7589 L676.2331,506.0403 L674.2108,504.0179 L670.4934,507.7372 Z"
         style="fill-rule: evenodd; fill: #ffffff; "
         id="path7" />
      <path
         d="  M664.0264,501.2702 L666.0478,503.2916 L669.7666,499.5732 L667.7461,497.5524 L664.0264,501.2702 Z"
         style="fill-rule: evenodd; fill: #ffffff; "
         id="path8" />
      <path
         d="  M667.0017,504.1852 L669.6038,506.7864 L673.2609,503.1283 L670.6597,500.5275 L667.0017,504.1852 Z"
         style="fill-rule: evenodd; fill: #ffffff; "
         id="path9" />
      <path
         d="  M670.5478,509.1633 L659.4619,520.2488 L653.5366,514.3231 L664.6226,503.2381 L670.5478,509.1633 Z"
         style="fill-rule: evenodd; fill: #ffffff; "
         id="path10" />
      <path
         d="  M658.2521,521.4588 L652.2163,521.5694 L652.3275,515.5341 L658.2521,521.4588 Z"
         style="fill-rule: evenodd; fill: #ffffff; "
         id="path11" />
      <path
         d="  M749.7287,450.2018 L723.5840,424.0569 L744.8849,402.7561 L771.0298,428.9013 L749.7287,450.2018 Z"
         style="fill-rule: evenodd; fill: #ffffff; "
         id="path12" />
      <path
         d="  M752.1259,403.8422 L749.7337,406.2332 L767.5518,424.0513 L769.9436,421.6603 L752.1259,403.8422 Z"
         style="fill-rule: evenodd; fill: #ffffff; "
         id="path13" />
      <path
         d="  M756.3789,406.6988 L761.2712,411.5909 L767.8120,405.0497 L762.9202,400.1575 L756.3789,406.6988 Z"
         style="fill-rule: evenodd; fill: #ffffff; "
         id="path14" />
      <path
         d="  M755.4429,405.7880 L750.0887,400.4338 L756.6552,393.8676 L762.0094,399.2215 L755.4429,405.7880 Z"
         style="fill-rule: evenodd; fill: #ffffff; "
         id="path15" />
      <path
         d="  M762.1948,412.5143 L768.7357,405.9733 L773.6284,410.8656 L767.0870,417.4068 L762.1948,412.5143 Z"
         style="fill-rule: evenodd; fill: #ffffff; "
         id="path16" />
      <path
         d="  M773.3517,423.6966 L767.9978,418.3430 L774.5644,411.7764 L779.9181,417.1303 L773.3517,423.6966 Z"
         style="fill-rule: evenodd; fill: #ffffff; "
         id="path17" />
      <path
         d="  M762.8680,393.0998 L760.0636,395.9042 L777.8822,413.7226 L780.6852,410.9178 L762.8680,393.0998 Z"
         style="fill-rule: evenodd; fill: #ffffff; "
         id="path18" />
      <path
         d="  M785.5358,414.3953 L759.3906,388.2506 L771.0186,376.6223 L797.1635,402.7672 L785.5358,414.3953 Z"
         style="fill-rule: evenodd; fill: #ffffff; "
         id="path19" />
      <path
         d="  M792.5475,391.5213 L782.2645,381.2383 L779.6354,383.8665 L789.9197,394.1501 L792.5475,391.5213 Z"
         style="fill-rule: evenodd; fill: #ffffff; "
         id="path20" />
      <path
         d="  M786.9008,384.5025 L793.7962,377.6080 L796.1773,379.9902 L789.2828,386.8847 L786.9008,384.5025 Z"
         style="fill-rule: evenodd; fill: #ffffff; "
         id="path21" />
      <path
         d="  M773.8880,446.5560 L755.7951,446.5574 L772.2399,430.1127 L773.8886,430.1124 L773.8880,446.5560 Z"
         style="fill-rule: evenodd; fill: #ffffff; "
         id="path22" />
      <path
         d="  M775.6001,433.5367 L775.6005,430.1118 L780.7812,430.1118 L780.7812,433.5363 L775.6001,433.5367 Z"
         style="fill-rule: evenodd; fill: #ffffff; "
         id="path23" />
      <path
         d="  M775.6001,441.8259 L775.6001,434.8428 L780.7812,434.8425 L780.7812,441.8255 L775.6001,441.8259 Z"
         style="fill-rule: evenodd; fill: #ffffff; "
         id="path24" />
      <path
         d="  M780.7812,446.5565 L775.6001,446.5569 L775.6001,443.1320 L780.7812,443.1320 L780.7812,446.5565 Z"
         style="fill-rule: evenodd; fill: #ffffff; "
         id="path25" />
      <path
         d="  M782.4933,445.0362 L782.4933,432.9746 L793.3234,432.9746 L793.3234,445.0362 L782.4933,445.0362 Z"
         style="fill-rule: evenodd; fill: #ffffff; "
         id="path26" />
      <path
         d="  M758.1799,368.4294 L758.1795,387.0392 L769.8082,375.4110 L769.8076,368.4297 L758.1799,368.4294 Z"
         style="fill-rule: evenodd; fill: #ffffff; "
         id="path27" />
      <path
         d="  M743.6580,445.5026 L728.2831,430.1279 L687.7302,470.6813 L703.1046,486.0556 L743.6580,445.5026 Z"
         style="fill-rule: evenodd; fill: #ffffff; "
         id="path28" />
    </g>
    <path
       d="  M202.1388,403.1223 C198.3612,403.1223 195.6417,404.3204 193.9802,406.7173 C192.3180,409.1151 191.4920,413.0634 191.4920,418.5425 C191.4920,423.3066 192.2881,426.6602 193.8795,428.6040 C195.4710,430.5479 198.2204,431.5249 202.1388,431.5249 L217.1153,431.5249 L217.1153,439.0793 L201.6951,439.0793 C198.2912,439.0793 195.6220,438.7874 193.6679,438.2132 C191.7241,437.6287 189.9006,436.6516 188.1888,435.2718 C185.9625,433.4994 184.3011,431.1929 183.1824,428.3523 C182.0748,425.5022 181.5210,422.1077 181.5210,418.1492 C181.5210,410.4745 183.1824,404.8136 186.5069,401.1682 C189.8306,397.5118 194.9769,395.6890 201.9570,395.6890 L217.1153,395.6890 L217.1153,403.1223 L202.1388,403.1223 Z Z M221.0337,416.9409 C221.0337,409.4872 222.8163,403.9380 226.3917,400.3021 C229.9577,396.6653 235.3865,394.8426 242.6891,394.8426 C250.0413,394.8426 255.4803,396.6858 259.0054,400.3619 C262.5407,404.0387 264.3036,409.7090 264.3036,417.3838 C264.3036,425.0593 262.5407,430.7398 259.0054,434.4364 C255.4803,438.1321 250.0413,439.9855 242.6891,439.9855 C235.2559,439.9855 229.7862,438.1227 226.2816,434.4057 C222.7864,430.6895 221.0337,424.8673 221.0337,416.9409 Z Z M242.6891,402.2758 C238.7707,402.2758 235.8498,403.4944 233.9060,405.9322 C231.9724,408.3693 231.0048,412.0659 231.0048,417.0014 C231.0048,422.3492 231.9417,426.2676 233.8250,428.7550 C235.6988,431.2433 238.6496,432.4925 242.6891,432.4925 C246.6571,432.4925 249.5984,431.2535 251.5218,428.7857 C253.4358,426.3179 254.3924,422.5207 254.3924,417.3838 C254.3924,412.2272 253.4358,408.4197 251.5218,405.9621 C249.5984,403.5046 246.6571,402.2758 242.6891,402.2758 Z Z M270.5285,395.6890 L283.9341,395.6890 L295.0033,428.9871 L306.0725,395.6890 L319.4183,395.6890 L319.4183,439.0793 L310.4739,439.0793 L311.2095,405.2770 L300.0797,439.0793 L290.4005,439.0793 L278.9183,404.9245 L279.8348,439.0793 L270.5285,439.0793 L270.5285,395.6890 Z Z M328.3627,395.6890 L341.7683,395.6890 L352.8375,428.9871 L363.9067,395.6890 L377.2526,395.6890 L377.2526,439.0793 L368.3081,439.0793 L369.0437,405.2770 L357.9139,439.0793 L348.2348,439.0793 L336.7525,404.9245 L337.6690,439.0793 L328.3627,439.0793 L328.3627,395.6890 Z Z M383.4169,416.9409 C383.4169,409.4872 385.1995,403.9380 388.7749,400.3021 C392.3408,396.6653 397.7696,394.8426 405.0723,394.8426 C412.4245,394.8426 417.8635,396.6858 421.3885,400.3619 C424.9238,404.0387 426.6868,409.7090 426.6868,417.3838 C426.6868,425.0593 424.9238,430.7398 421.3885,434.4364 C417.8635,438.1321 412.4245,439.9855 405.0723,439.9855 C397.6391,439.9855 392.1694,438.1227 388.6647,434.4057 C385.1696,430.6895 383.4169,424.8673 383.4169,416.9409 Z Z M405.0723,402.2758 C401.1539,402.2758 398.2330,403.4944 396.2891,405.9322 C394.3555,408.3693 393.3879,412.0659 393.3879,417.0014 C393.3879,422.3492 394.3248,426.2676 396.2081,428.7550 C398.0819,431.2433 401.0327,432.4925 405.0723,432.4925 C409.0402,432.4925 411.9816,431.2535 413.9050,428.7857 C415.8189,426.3179 416.7755,422.5207 416.7755,417.3838 C416.7755,412.2272 415.8189,408.4197 413.9050,405.9621 C411.9816,403.5046 409.0402,402.2758 405.0723,402.2758 Z Z M432.9117,395.6890 L444.4639,395.6890 L462.2418,426.8615 L461.7981,395.6890 L471.1052,395.6890 L471.1052,439.0793 L460.5292,439.0793 L441.8655,406.2540 L442.2785,439.0793 L432.9117,439.0793 L432.9117,395.6890 Z Z M523.6310,403.4243 L512.4414,403.4243 L512.4414,414.3622 L523.6310,414.3622 C526.6628,414.3622 528.7679,413.9492 529.9463,413.1232 C531.1248,412.2972 531.7195,410.8772 531.7195,408.8634 C531.7195,406.8684 531.1452,405.4689 529.9967,404.6531 C528.8387,403.8373 526.7233,403.4243 523.6310,403.4243 Z Z M503.3160,395.6890 L525.7864,395.6890 C531.0241,395.6890 534.8614,396.7463 537.2993,398.8514 C539.7466,400.9566 540.9652,404.2598 540.9652,408.7422 C540.9652,412.0761 540.2100,414.7956 538.7090,416.9008 C537.1986,419.0059 535.0329,420.3652 532.1923,420.9796 L543.0200,439.0793 L532.7563,439.0793 L523.1881,422.0369 L512.4414,422.0369 L512.4414,439.0793 L503.3160,439.0793 L503.3160,395.6890 Z Z M565.5619,404.3101 L559.2159,421.0103 L572.1385,421.0103 L565.5619,404.3101 Z Z M561.0795,395.6890 L570.7484,395.6890 L589.2508,439.0793 L579.0989,439.0793 L575.1199,428.7456 L556.2651,428.7456 L552.3970,439.0793 L542.7179,439.0793 L561.0795,395.6890 Z Z M601.8918,439.0793 L592.3440,439.0793 L592.3440,395.6890 L601.8918,395.6890 L601.8918,439.0793 Z Z M628.1303,439.0793 C624.0711,439.0793 621.0597,438.7371 619.0954,438.0621 C617.1217,437.3872 615.3588,436.2087 613.8075,434.5371 C612.3671,433.0361 611.3601,431.3440 610.7662,429.4607 C610.1715,427.5766 609.8796,424.9177 609.8796,421.4933 L609.8796,395.6890 L619.0050,395.6890 L619.0050,421.2015 C619.0050,423.7393 619.1159,425.5218 619.3472,426.5595 C619.5690,427.5971 619.9616,428.4231 620.5154,429.0579 C621.3720,430.0751 622.4396,430.8004 623.6982,431.2330 C624.9577,431.6665 626.7001,431.8876 628.9256,431.8876 L639.6731,431.8876 L639.6731,439.0793 L628.1303,439.0793 Z"
       style="fill-rule: evenodd; fill: #ffffff; "
       id="path29" />
    <path
       d="  M182.9157,467.0708 L193.9805,467.0708 L204.2235,495.4992 L214.5212,467.0708 L225.5859,467.0708 L225.5859,505.4136 L218.0818,505.4136 L218.0818,478.5188 L208.3864,505.4136 L200.1152,505.4136 L190.5843,478.5188 L190.5843,505.4136 L182.9157,505.4136 L182.9157,467.0708 Z Z M230.0774,472.5482 L237.5269,472.5482 L237.5269,491.6832 C237.5269,493.1714 237.7276,494.4220 238.1292,495.4263 C238.5312,496.4304 239.0788,497.2246 239.7728,497.8273 C240.4664,498.4296 241.2791,498.8588 242.2103,499.1145 C243.1414,499.3702 244.1364,499.4980 245.1954,499.4980 C246.2179,499.4980 247.1947,499.3702 248.1259,499.1145 C249.0571,498.8588 249.8695,498.4296 250.5634,497.8273 C251.2573,497.2246 251.8050,496.4304 252.2066,495.4263 C252.6083,494.4220 252.8093,493.1714 252.8093,491.6832 L252.8093,472.5482 L260.2587,472.5482 L260.2587,491.7197 C260.2587,494.4586 259.8571,496.7408 259.0537,498.5666 C258.2504,500.3926 257.1639,501.8624 255.7945,502.9761 C254.4250,504.0899 252.8274,504.8841 251.0016,505.3589 C249.1758,505.8334 247.2403,506.0710 245.1954,506.0710 C243.1140,506.0710 241.1512,505.8334 239.3070,505.3589 C237.4628,504.8841 235.8561,504.0899 234.4867,502.9761 C233.1173,501.8624 232.0401,500.3926 231.2549,498.5666 C230.4700,496.7408 230.0774,494.4586 230.0774,491.7197 L230.0774,472.5482 Z Z M266.2841,472.5482 L285.6747,472.5482 C287.1354,472.5482 288.5139,472.7217 289.8102,473.0686 C291.1065,473.4156 292.2477,473.9907 293.2336,474.7941 C294.2198,475.5974 294.9956,476.6383 295.5617,477.9164 C296.1278,479.1943 296.4107,480.7647 296.4107,482.6271 C296.4107,484.1972 296.2372,485.5575 295.8902,486.7078 C295.5433,487.8581 295.0688,488.8349 294.4661,489.6383 C293.8635,490.4416 293.1333,491.0990 292.2752,491.6103 C291.4169,492.1214 290.4766,492.5049 289.4542,492.7603 L296.7942,505.4136 L288.1395,505.4136 L281.4021,493.1439 L273.7335,493.1439 L273.7335,505.4136 L266.2841,505.4136 L266.2841,472.5482 Z Z M285.6747,486.5709 C286.5875,486.5709 287.3636,486.2877 288.0026,485.7310 C288.6418,485.1740 288.9612,484.1425 288.9612,482.6271 C288.9612,481.3308 288.6418,480.4268 288.0026,479.9064 C287.3636,479.3862 286.5875,479.1214 285.6747,479.1214 L273.7335,479.1214 L273.7335,486.5709 L285.6747,486.5709 Z Z M301.2307,472.5482 L311.2546,472.5482 L319.4164,495.1159 L327.6326,472.5482 L337.6565,472.5482 L337.6565,505.4136 L330.3714,505.4136 L330.3714,485.5300 L323.1958,505.4136 L315.6367,505.4136 L308.6802,485.6397 L308.6802,505.4136 L301.2307,505.4136 L301.2307,472.5482 Z Z M354.5274,472.5482 L362.0316,472.5482 L376.7114,505.4136 L368.4402,505.4136 L365.7016,499.0598 L350.8574,499.0598 C350.4557,500.0091 349.9991,501.0681 349.4880,502.2366 C348.9766,503.4053 348.5203,504.4643 348.1186,505.4136 L339.8474,505.4136 L354.5274,472.5482 Z Z M362.9628,492.4865 C362.5611,491.5097 362.1685,490.5785 361.7850,489.7114 C361.4017,488.8349 361.0182,487.9585 360.6347,487.0913 C360.2514,486.2149 359.8679,485.3384 359.4844,484.4438 C359.1011,483.5582 358.6901,482.5996 358.2522,481.5862 L353.5413,492.4865 L362.9628,492.4865 Z Z M378.9023,472.5482 L387.9403,472.5482 L399.7718,494.0751 L399.7718,472.5482 L407.2212,472.5482 L407.2212,505.4136 L398.1832,505.4136 L386.3517,483.8868 L386.3517,505.4136 L378.9023,505.4136 L378.9023,472.5482 Z Z M441.1820,467.0708 L459.8056,467.0708 C462.0696,467.0708 464.1968,467.4084 466.1870,468.0842 C468.1772,468.7597 469.9210,469.8459 471.4180,471.3432 C472.9153,472.8404 474.0931,474.8122 474.9511,477.2591 C475.8094,479.7057 476.2383,482.6999 476.2383,486.2421 C476.2383,489.7843 475.8094,492.7788 474.9511,495.2254 C474.0931,497.6719 472.9153,499.6440 471.4180,501.1413 C469.9210,502.6382 468.1772,503.7248 466.1870,504.4003 C464.1968,505.0757 462.0696,505.4136 459.8056,505.4136 L441.1820,505.4136 L441.1820,467.0708 Z Z M458.7103,498.8407 C460.0613,498.8407 461.3394,498.6397 462.5444,498.2380 C463.7494,497.8363 464.7994,497.1518 465.6940,496.1840 C466.5886,495.2163 467.2916,493.9291 467.8030,492.3224 C468.3141,490.7154 468.5698,488.6889 468.5698,486.2421 C468.5698,483.7955 468.3141,481.7687 467.8030,480.1620 C467.2916,478.5554 466.5886,477.2682 465.6940,476.3004 C464.7994,475.3327 463.7494,474.6481 462.5444,474.2464 C461.3394,473.8448 460.0613,473.6438 458.7103,473.6438 L448.8506,473.6438 L448.8506,498.8407 L458.7103,498.8407 Z Z M481.1681,472.5482 L488.6175,472.5482 L488.6175,505.4136 L481.1681,505.4136 L481.1681,472.5482 Z Z M507.6794,505.4136 C505.7439,505.4136 503.9181,505.1307 502.2017,504.5647 C500.4856,503.9986 498.9883,503.0674 497.7102,501.7711 C496.4321,500.4748 495.4187,498.7766 494.6700,496.6770 C493.9217,494.5771 493.5472,492.0120 493.5472,488.9809 C493.5472,485.9501 493.9217,483.3848 494.6700,481.2851 C495.4187,479.1852 496.4321,477.4873 497.7102,476.1910 C498.9883,474.8944 500.4856,473.9632 502.2017,473.3974 C503.9181,472.8314 505.7439,472.5482 507.6794,472.5482 L520.0586,472.5482 L520.0586,479.1214 L508.6106,479.1214 C506.8576,479.1214 505.2966,479.6144 503.9271,480.5912 C502.5577,481.5680 501.6540,483.2660 501.2158,485.6944 L520.0586,485.6944 L520.0586,492.2674 L501.2158,492.2674 C501.4349,493.4999 501.7819,494.5314 502.2567,495.3623 C502.7312,496.1931 503.2882,496.8777 503.9271,497.3981 C504.5664,497.9276 505.2875,498.2927 506.0908,498.5118 C506.8942,498.7310 507.7341,498.8407 508.6106,498.8407 L520.0586,498.8407 L520.0586,505.4136 L507.6794,505.4136 Z Z M526.7412,498.8407 L543.8310,498.8407 C544.8900,498.8407 545.7847,498.6031 546.5151,498.1377 C547.2454,497.6629 547.6107,496.7957 547.6107,495.5267 C547.6107,494.2942 547.2454,493.4452 546.5151,492.9704 C545.7847,492.5049 544.8900,492.2674 543.8310,492.2674 L536.1077,492.2674 C534.5376,492.2674 533.1226,492.0939 531.8626,491.7472 C530.6029,491.4003 529.5254,490.8433 528.6308,490.0765 C527.7362,489.3097 527.0423,488.2963 526.5493,487.0363 C526.0564,485.7766 525.8100,484.2337 525.8100,482.4079 C525.8100,480.5456 526.0564,478.9845 526.5493,477.7245 C527.0423,476.4648 527.7362,475.4514 528.6308,474.6847 C529.5254,473.9176 530.6029,473.3700 531.8626,473.0414 C533.1226,472.7126 534.5376,472.5482 536.1077,472.5482 L554.1290,472.5482 L554.1290,479.1214 L537.0389,479.1214 C535.9799,479.1214 535.0853,479.3587 534.3548,479.8244 C533.6246,480.2990 533.2595,481.1664 533.2595,482.4351 C533.2595,483.6677 533.6246,484.5166 534.3548,484.9914 C535.0853,485.4572 535.9799,485.6944 537.0389,485.6944 L544.7622,485.6944 C546.3326,485.6944 547.7477,485.8679 549.0074,486.2149 C550.2671,486.5618 551.3445,487.1186 552.2391,487.8853 C553.1338,488.6524 553.8277,489.6658 554.3206,490.9255 C554.8136,492.1855 555.0602,493.7281 555.0602,495.5542 C555.0602,497.4165 554.8136,498.9776 554.3206,500.2373 C553.8277,501.4973 553.1338,502.5104 552.2391,503.2774 C551.3445,504.0442 550.2671,504.5919 549.0074,504.9207 C547.7477,505.2492 546.3326,505.4136 544.7622,505.4136 L526.7412,505.4136 L526.7412,498.8407 Z Z M573.3003,505.4136 C571.3648,505.4136 569.5390,505.1307 567.8226,504.5647 C566.1065,503.9986 564.6093,503.0674 563.3311,501.7711 C562.0530,500.4748 561.0396,498.7766 560.2910,496.6770 C559.5426,494.5771 559.1682,492.0120 559.1682,488.9809 C559.1682,485.9501 559.5426,483.3848 560.2910,481.2851 C561.0396,479.1852 562.0530,477.4873 563.3311,476.1910 C564.6093,474.8944 566.1065,473.9632 567.8226,473.3974 C569.5390,472.8314 571.3648,472.5482 573.3003,472.5482 L585.6795,472.5482 L585.6795,479.1214 L574.2315,479.1214 C572.4785,479.1214 570.9175,479.6144 569.5481,480.5912 C568.1786,481.5680 567.2750,483.2660 566.8367,485.6944 L585.6795,485.6944 L585.6795,492.2674 L566.8367,492.2674 C567.0558,493.4999 567.4028,494.5314 567.8776,495.3623 C568.3521,496.1931 568.9091,496.8777 569.5481,497.3981 C570.1873,497.9276 570.9084,498.2927 571.7117,498.5118 C572.5151,498.7310 573.3550,498.8407 574.2315,498.8407 L585.6795,498.8407 L585.6795,505.4136 L573.3003,505.4136 Z Z M591.7048,472.5482 L599.1542,472.5482 L599.1542,492.1123 C599.1542,493.3905 599.3549,494.4586 599.7566,495.3166 C600.1586,496.1750 600.7062,496.8595 601.4001,497.3890 C602.0938,497.9186 602.9065,498.2927 603.8376,498.5118 C604.7688,498.7310 605.7638,498.8407 606.8228,498.8407 L615.5320,498.8407 L615.5320,505.4136 L606.8228,505.4136 C604.7779,505.4136 602.8333,505.1945 600.9891,504.7563 C599.1452,504.3180 597.5382,503.5788 596.1691,502.5379 C594.7997,501.4973 593.7131,500.1369 592.9098,498.4571 C592.1065,496.7773 591.7048,494.6777 591.7048,492.1580 L591.7048,472.5482 Z"
       style="fill-rule: evenodd; fill: #ffffff; "
       id="path30" />
    <path
       d="  M182.6237,517.7622 L638.8217,517.7622 L638.8217,521.3622 L182.6237,521.3622 L182.6237,517.7622 Z"
       style="fill-rule: evenodd; fill: #ffffff; "
       id="path31" />
  </g>
  <path
     style="fill:#000000;stroke-width:1.25211"
     d="m 262.03678,584.07093 c -12.87256,-2.1684 -19.01184,-10.84622 -19.01787,-26.88157 -0.008,-22.10979 8.48903,-29.32095 34.63669,-29.394 l 10.95597,-0.0306 v 4.38239 4.38239 l -10.95597,0.002 c -19.09907,0.003 -23.64921,4.79534 -22.50758,23.70367 0.4948,8.19506 0.96472,9.65283 3.93538,12.20808 3.06186,2.6337 4.58149,2.90175 16.45082,2.90175 h 13.07735 v 5.00844 5.00844 l -10.32992,-0.14727 c -5.68145,-0.081 -12.99164,-0.59564 -16.24487,-1.14365 z"
     id="path32"
     transform="matrix(0.75000147,0,0,0.75000147,-0.00179763,0)" />
  <path
     style="fill:#ffffff;fill-opacity:1;stroke-width:1.25211"
     d="m 316.78406,585.42199 c -13.83243,-2.31834 -20.79417,-11.41763 -21.12138,-27.60658 -0.23556,-11.65411 1.24852,-17.00748 6.2494,-22.54286 5.30769,-5.87497 10.85036,-7.88155 21.70927,-7.85926 19.30681,0.0396 27.54076,8.7547 27.54076,29.15001 0,19.36457 -6.49419,27.13169 -24.36116,29.1362 -2.75464,0.30905 -7.26224,0.18417 -10.01689,-0.27751 z m 18.39201,-12.56225 c 6.84792,-8.45683 5.86787,-28.52232 -1.66791,-34.14859 -4.64355,-3.46692 -14.94398,-3.52613 -19.54837,-0.11238 -1.88995,1.40123 -4.10879,4.467 -4.93075,6.81281 -3.12452,8.91719 -1.26144,23.86144 3.5135,28.18271 5.154,4.6643 18.61557,4.22742 22.63353,-0.73455 z"
     id="path35"
     transform="matrix(0.75000147,0,0,0.75000147,-0.00179763,0)" />
  <path
     style="fill:#ffffff;fill-opacity:1;stroke-width:0.110672"
     d="m 320.45082,586.49766 c -9.15884,-0.57535 -15.59122,-3.37283 -19.75009,-8.58942 -3.91984,-4.91677 -5.9202,-12.31027 -5.92301,-21.89203 -0.002,-7.74366 1.4267,-13.95067 4.26987,-18.547 1.90344,-3.07714 4.70865,-5.71893 7.90269,-7.44232 4.57161,-2.46669 10.66732,-3.64968 17.87208,-3.46843 2.84897,0.0717 4.05035,0.17303 6.29819,0.53135 6.2697,0.99944 11.3382,3.52861 14.68242,7.32648 3.49985,3.97461 5.56658,9.46103 6.32316,16.78568 0.19076,1.84683 0.19076,8.77768 0,10.62452 -1.33784,12.95208 -6.78548,20.34918 -17.19158,23.34367 -4.01926,1.15659 -9.38122,1.64804 -14.48373,1.3275 z m 7.16953,-10.15507 c 4.98809,-1.08569 8.08551,-3.74715 9.93298,-8.53488 2.21078,-5.72925 2.25916,-16.36466 0.10172,-22.36068 -0.94082,-2.61473 -2.47938,-4.85622 -4.27335,-6.22573 -2.60712,-1.99027 -5.52751,-2.84737 -9.72943,-2.85546 -3.61817,-0.007 -6.03785,0.55719 -8.54686,1.99274 -4.92945,2.82041 -7.40468,9.42152 -7.1191,18.98569 0.17241,5.77416 1.05525,9.84058 2.81069,12.94632 1.93372,3.42114 5.1956,5.53915 9.54315,6.19657 1.58955,0.24036 5.90546,0.15466 7.2802,-0.14457 z"
     id="path36"
     transform="matrix(0.75000147,0,0,0.75000147,-0.00179763,0)" />
  <path
     style="fill:#ffffff;fill-opacity:1;stroke-width:0.110672"
     d="m 320.32902,586.49565 c -9.9344,-0.63576 -16.75193,-3.9845 -20.81957,-10.22647 -3.27701,-5.0287 -4.9146,-12.55089 -4.69822,-21.58104 0.14399,-6.00894 0.98361,-10.35819 2.79839,-14.49574 1.98655,-4.52917 5.51377,-8.25918 9.89162,-10.46032 4.21463,-2.11907 9.66906,-3.20981 16.0484,-3.20925 15.50896,10e-4 24.41486,5.99463 27.54552,18.53685 0.8959,3.58922 1.16224,6.16175 1.1687,11.28854 0.005,4.33926 -0.0747,5.57707 -0.5556,8.57708 -1.36227,8.49852 -5.07864,14.48342 -11.13181,17.92685 -4.98032,2.83312 -12.30743,4.15163 -20.24743,3.6435 z m 6.24575,-10.00503 c 3.26284,-0.42773 5.70984,-1.57456 7.77205,-3.64251 1.6439,-1.64848 2.66054,-3.35619 3.46481,-5.82004 1.88673,-5.77994 1.91128,-15.23691 0.0543,-20.91549 -1.74671,-5.34133 -4.93652,-8.27261 -10.26524,-9.43325 -0.99001,-0.21563 -1.44819,-0.2438 -3.99571,-0.24565 -2.56753,-0.002 -2.99792,0.0244 -3.99571,0.24356 -4.19387,0.92129 -6.93089,2.83669 -8.91077,6.23586 -2.12165,3.64258 -3.07801,9.55574 -2.63861,16.31448 0.64366,9.90064 3.92352,15.17046 10.50952,16.88582 0.51739,0.13475 1.38893,0.3068 1.93676,0.38233 1.42076,0.19587 4.55557,0.19323 6.06861,-0.005 z"
     id="path37"
     transform="matrix(0.75000147,0,0,0.75000147,-0.00179763,0)" />
  <path
     style="fill:#ffffff;fill-opacity:1;stroke-width:0.110672"
     d="m 320.28481,586.49473 c -11.21344,-0.70278 -18.55555,-4.9725 -22.29107,-12.96313 -2.26459,-4.84417 -3.36223,-11.34324 -3.18251,-18.84346 0.23553,-9.82936 2.57305,-16.45065 7.50536,-21.25976 3.89842,-3.80106 8.96391,-5.87707 16.36348,-6.70632 1.98708,-0.22269 8.27214,-0.18451 10.34783,0.0628 6.42505,0.76569 10.99153,2.5321 14.83117,5.73699 3.9276,3.2783 6.67964,8.62802 7.79353,15.14991 0.51444,3.0121 0.60909,4.38621 0.60909,8.84242 0,4.47102 -0.0966,5.86273 -0.61457,8.84958 -1.40618,8.10937 -4.96328,13.86023 -10.68022,17.26701 -5.0236,2.99361 -12.44517,4.38013 -20.68209,3.86391 z m 7.29764,-10.16338 c 5.7568,-1.17268 9.27922,-4.85928 10.79236,-11.29538 0.93253,-3.96649 1.11865,-10.03986 0.44771,-14.6087 -1.1838,-8.0611 -4.65924,-12.3217 -11.2125,-13.74557 -1.00188,-0.21769 -1.44833,-0.245 -4.00505,-0.245 -2.55671,0 -3.00316,0.0273 -4.00504,0.245 -6.52874,1.41854 -10.06312,5.72108 -11.26224,13.70996 -0.44059,2.93535 -0.48554,7.18008 -0.11354,10.72244 0.54179,5.15917 1.98583,9.02476 4.30847,11.5335 1.89376,2.04548 4.79896,3.42456 8.19488,3.89004 1.32587,0.18174 5.5783,0.0538 6.85495,-0.20629 z"
     id="path38"
     transform="matrix(0.75000147,0,0,0.75000147,-0.00179763,0)" />
  <path
     style="fill:#ffffff;fill-opacity:1;stroke-width:0.110672"
     d="m 320.22948,586.49413 c -14.54966,-0.958 -22.40751,-7.708 -24.72229,-21.23681 -0.53257,-3.1126 -0.6695,-4.95811 -0.67336,-9.07511 -0.004,-3.9066 0.0781,-5.20808 0.50564,-8.05049 0.73084,-4.85867 2.43931,-9.1662 4.94952,-12.47917 0.73778,-0.97371 2.59928,-2.85277 3.62069,-3.65482 4.87551,-3.82848 11.89469,-5.65462 20.91268,-5.44074 1.52175,0.0361 3.43914,0.14353 4.26088,0.23875 8.62969,0.99998 14.61737,4.18886 18.39659,9.79753 3.2496,4.82266 4.84234,11.37505 4.84234,19.92096 0,18.22214 -7.25521,27.74688 -22.63024,29.70928 -2.89241,0.36918 -6.42936,0.47033 -9.46245,0.27062 z m 5.64427,-9.95128 c 5.84545,-0.51343 9.88502,-3.65293 11.82056,-9.18677 1.99767,-5.71143 2.05168,-15.4781 0.11823,-21.37591 -2.33505,-7.12281 -7.97262,-10.32526 -16.7168,-9.49605 -2.15399,0.20426 -4.34812,0.90907 -6.11556,1.96446 -1.08638,0.64871 -2.83508,2.2984 -3.57741,3.37484 -2.58138,3.74326 -3.78487,9.82331 -3.35699,16.95959 0.44486,7.41946 2.24801,12.17766 5.65474,14.92183 1.76853,1.42457 4.54907,2.53788 7.05449,2.82458 1.21143,0.13862 3.62144,0.14495 5.11874,0.0134 z"
     id="path39"
     transform="matrix(0.75000147,0,0,0.75000147,-0.00179763,0)" />
  <path
     style="fill:#ffffff;fill-opacity:1;stroke-width:0.110672"
     d="m 320.17414,586.50487 c -10.58175,-0.77259 -17.35872,-4.38832 -21.37503,-11.40426 -2.80297,-4.8964 -4.18414,-11.96705 -3.98735,-20.41247 0.1815,-7.78963 1.64741,-13.371 4.71844,-17.96533 1.02402,-1.53194 2.95292,-3.61473 4.37948,-4.72887 4.64699,-3.62926 11.25517,-5.47183 19.62422,-5.47183 17.02738,0 26.12906,7.19072 28.29688,22.35575 0.65967,4.61481 0.6761,10.32949 0.0431,14.99606 -1.86474,13.74722 -9.24303,20.91726 -23.12267,22.47002 -1.8065,0.2021 -6.74422,0.29474 -8.57708,0.16093 z m 6.92268,-10.11047 c 1.55447,-0.25729 2.63129,-0.60064 4.03385,-1.2862 3.8103,-1.86245 6.14052,-5.18725 7.29191,-10.40424 1.0357,-4.69276 1.05952,-11.24166 0.0588,-16.1578 -1.2252,-6.01873 -4.31273,-9.85868 -9.15561,-11.38679 -1.95897,-0.61813 -2.79062,-0.72316 -5.72076,-0.72247 -2.11864,5e-4 -2.86888,0.0417 -3.70751,0.20368 -7.46091,1.44096 -11.17804,6.73807 -11.84902,16.8855 -0.38005,5.74761 0.49527,11.9392 2.21373,15.65879 1.94346,4.20662 5.58769,6.73955 10.576,7.35086 1.17306,0.14375 5.06756,0.0558 6.25865,-0.14133 z"
     id="path40"
     transform="matrix(0.75000147,0,0,0.75000147,-0.00179763,0)" />
  <path
     style="fill:#ffffff;fill-opacity:1;stroke-width:0.110672"
     d="m 320.1188,586.49585 c -14.75791,-1.03845 -22.58263,-7.9805 -24.7263,-21.93703 -0.48467,-3.15545 -0.56169,-4.33852 -0.55617,-8.54261 0.005,-4.15378 0.1119,-5.6455 0.61204,-8.57709 0.69513,-4.07445 2.09175,-7.7391 4.08698,-10.72401 1.01871,-1.52401 2.95116,-3.60968 4.37433,-4.72117 4.65874,-3.63845 11.24458,-5.47279 19.63996,-5.47028 8.34753,0.002 14.59546,1.68325 19.3676,5.2101 0.51739,0.38237 1.48854,1.24813 2.1581,1.92389 3.86398,3.89976 6.15429,9.41048 6.97672,16.78669 0.24268,2.17655 0.3355,7.63138 0.17014,9.99875 -0.82138,11.75911 -4.97645,19.18929 -12.9018,23.07128 -4.87672,2.3887 -11.97106,3.49026 -19.2016,2.98148 z m 5.36312,-9.95066 c 2.31345,-0.16918 4.10256,-0.62929 5.81476,-1.49538 3.90087,-1.97323 6.41273,-5.90555 7.35091,-11.50791 0.80836,-4.82713 0.7179,-10.94506 -0.22501,-15.2174 -1.86575,-8.45376 -7.00852,-12.28447 -15.97966,-11.90281 -4.2084,0.17904 -7.21868,1.38128 -9.68645,3.86855 -3.22944,3.25496 -4.7267,8.22782 -4.73487,15.72597 -0.0101,9.29322 1.99827,15.08167 6.28692,18.11969 2.83339,2.00712 6.33831,2.76288 11.1734,2.40929 z"
     id="path41"
     transform="matrix(0.75000147,0,0,0.75000147,-0.00179763,0)" />
  <path
     style="fill:#ffffff;fill-opacity:1;stroke-width:0.110672"
     d="m 320.00813,586.49522 c -9.73185,-0.68957 -16.43988,-4.02202 -20.47305,-10.1707 -1.3907,-2.12017 -2.61793,-5.00985 -3.36062,-7.91305 -0.86488,-3.3809 -1.26442,-6.57612 -1.3631,-10.90119 -0.17646,-7.73465 0.89693,-13.70674 3.30963,-18.41389 1.09127,-2.12908 2.18835,-3.62387 3.9518,-5.38443 1.938,-1.93482 3.12272,-2.79892 5.4294,-3.96008 4.35617,-2.19284 9.52298,-3.22887 16.10278,-3.22887 10.18502,0 17.63425,2.65615 22.24728,7.93264 3.7398,4.27768 5.85252,10.27124 6.3712,18.07439 0.16553,2.49022 0.0699,8.0317 -0.17476,10.12649 -1.55654,13.3276 -7.82944,20.74305 -19.55508,23.11685 -3.64088,0.73708 -8.39302,1.01183 -12.48548,0.72184 z m 5.3539,-9.95135 c 3.97217,-0.2864 6.79722,-1.47948 9.11809,-3.85077 2.31913,-2.36951 3.71221,-5.75482 4.40339,-10.70061 0.24931,-1.78396 0.3447,-7.16763 0.16447,-9.28276 -0.49756,-5.83919 -1.96092,-9.76539 -4.64946,-12.47455 -1.44942,-1.46054 -3.01724,-2.40361 -5.09394,-3.06411 -1.82646,-0.5809 -2.97232,-0.72502 -5.75494,-0.72379 -2.78233,10e-4 -3.78983,0.12907 -5.61368,0.7123 -6.23147,1.99268 -9.38694,7.33913 -9.87647,16.73412 -0.0988,1.89566 -0.0119,5.75988 0.15744,7.002 0.0324,0.23802 0.1375,1.00549 0.23345,1.70549 0.47405,3.45835 1.54556,6.52134 3.03514,8.67609 0.76857,1.11178 2.28479,2.55081 3.43056,3.25592 2.74506,1.68932 6.05813,2.32703 10.44595,2.01067 z"
     id="path42"
     transform="matrix(0.75000147,0,0,0.75000147,-0.00179763,0)" />
  <path
     style="fill:#ffffff;fill-opacity:1;stroke-width:0.110672"
     d="m 319.9528,586.50269 c -8.30654,-0.67796 -13.96568,-2.94813 -18.09535,-7.25894 -3.88777,-4.0583 -6.0355,-9.61489 -6.88184,-17.80462 -0.21991,-2.12801 -0.18291,-9.1332 0.059,-11.17787 0.76881,-6.49694 2.55817,-11.32392 5.56444,-15.01063 0.9168,-1.12432 2.97257,-3.05491 4.13947,-3.8874 0.57651,-0.41131 1.82015,-1.13641 2.76362,-1.61135 4.34414,-2.18678 9.52943,-3.23061 16.0419,-3.22932 4.99519,9.9e-4 8.93166,0.55191 12.63145,1.76782 9.9392,3.26643 15.16785,11.16477 16.0465,24.23966 0.14638,2.17835 0.0788,7.90485 -0.11435,9.6838 -1.4134,13.01989 -7.22494,20.47415 -18.11024,23.2294 -1.40016,0.3544 -3.2411,0.67669 -5.13556,0.89905 -1.77475,0.20832 -7.13877,0.3049 -8.90909,0.1604 z m 6.66422,-10.0751 c 2.92924,-0.34907 5.67058,-1.60298 7.58548,-3.46965 2.52804,-2.46436 4.00348,-5.96151 4.69633,-11.13145 0.28293,-2.11122 0.28354,-8.57971 0.001,-10.66143 -0.66268,-4.88253 -1.97637,-8.20202 -4.22133,-10.66666 -1.75146,-1.92285 -4.51034,-3.33502 -7.50964,-3.8439 -1.51102,-0.25637 -5.59329,-0.25916 -7.11751,-0.005 -2.99472,0.49965 -5.7584,1.92402 -7.57274,3.90293 -2.17985,2.37756 -3.45026,5.50594 -4.16734,10.26204 -0.28776,1.90867 -0.2883,8.86589 -8.3e-4,10.90119 0.59279,4.19706 1.58292,7.22306 3.08982,9.44299 2.09297,3.08333 5.66066,5.01821 9.93594,5.38858 1.19463,0.10349 3.92729,0.0415 5.28082,-0.11979 z"
     id="path43"
     transform="matrix(0.75000147,0,0,0.75000147,-0.00179763,0)" />
  <path
     style="fill:#ffffff;fill-opacity:1;stroke-width:0.442688"
     d="m 268.39522,584.53296 c -8.18316,-0.6763 -12.27536,-1.87963 -16.37455,-4.81499 -6.31977,-4.52548 -9.23114,-13.21809 -8.60553,-25.69386 0.15262,-3.04348 0.57903,-6.79336 0.94758,-8.33306 3.1564,-13.18672 12.73995,-17.78388 37.07621,-17.78517 l 6.97234,-3.7e-4 v 4.20554 4.20554 h -7.64798 c -4.20639,0 -9.29996,0.20714 -11.31904,0.46031 -11.71514,1.46895 -15.19376,6.70928 -14.53766,21.90013 0.39434,9.13019 0.78672,10.57412 3.62884,13.35388 1.38498,1.35459 3.03913,2.49766 4.04606,2.79595 0.97879,0.28995 6.83436,0.6134 13.76653,0.76043 l 12.06325,0.25587 v 4.58456 4.58455 l -7.85771,-0.0619 c -4.32174,-0.0341 -9.79299,-0.22189 -12.15834,-0.41737 z"
     id="path44"
     transform="matrix(0.75000147,0,0,0.75000147,-0.00179763,0)" />
  <path
     style="fill:#ffffff;fill-opacity:1;stroke-width:0.442688"
     d="m 276.23735,584.55031 c -12.08393,-0.35259 -16.0464,-0.97865 -20.80634,-3.28733 -5.88867,-2.85614 -9.62181,-8.13454 -11.11256,-15.71238 -0.58365,-2.96683 -0.68453,-5.22335 -0.48488,-10.84586 0.26229,-7.38675 0.74536,-9.96294 2.63131,-14.03269 2.59782,-5.60592 8.07606,-9.3131 16.27048,-11.01039 3.74292,-0.77527 16.51427,-1.73243 23.3518,-1.75013 l 2.32411,-0.006 v 4.20554 4.20554 l -8.74309,0.003 c -4.8087,0.002 -9.99544,0.20657 -11.52609,0.45497 -6.54349,1.06186 -10.22441,3.56563 -12.10749,8.23554 -0.98802,2.45022 -1.04587,3.12464 -1.03892,12.11248 0.007,8.69078 0.0872,9.69089 0.92657,11.50989 1.09249,2.36765 3.79517,5.15553 5.86498,6.04988 1.28975,0.55729 9.90138,1.04002 26.07068,1.4614 0.40484,0.0105 0.55336,1.20261 0.55336,4.4413 0,3.9499 -0.0835,4.4187 -0.7747,4.3509 -0.42609,-0.0418 -5.55574,-0.21547 -11.39922,-0.38598 z"
     id="path45"
     transform="matrix(0.75000147,0,0,0.75000147,-0.00179763,0)" />
  <path
     style="fill:#ffffff;fill-opacity:1;stroke-width:0.442688"
     d="m 276.23735,584.54385 c -12.16361,-0.36232 -16.2093,-0.99594 -20.80634,-3.25862 -5.92649,-2.91705 -9.71932,-8.28524 -11.12881,-15.75123 -0.54941,-2.91017 -0.65443,-5.36789 -0.46346,-10.84586 0.26767,-7.67795 0.78727,-10.26266 2.94365,-14.6429 2.54559,-5.17082 8.03814,-8.73631 16.00958,-10.39261 3.68906,-0.76651 16.49309,-1.72349 23.29519,-1.7411 l 2.32411,-0.006 v 4.20554 4.20554 l -8.74309,0.003 c -4.8087,0.002 -9.99544,0.20657 -11.52609,0.45497 -6.45349,1.04725 -10.25786,3.66136 -12.14369,8.34431 -0.92832,2.30524 -1.00141,3.16161 -1.00558,11.78237 -0.004,7.89454 0.11549,9.60737 0.79118,11.35825 0.85822,2.22389 4.32186,5.82335 6.34307,6.59181 0.89505,0.3403 14.04021,0.998 25.95219,1.2985 0.1826,0.005 0.33201,2.00047 0.33201,4.43525 0,3.9499 -0.0835,4.4187 -0.7747,4.3509 -0.42609,-0.0418 -5.55574,-0.21839 -11.39922,-0.39244 z"
     id="path46"
     transform="matrix(0.75000147,0,0,0.75000147,-0.00179763,0)" />
  <path
     style="fill:#ffffff;fill-opacity:1;stroke-width:0.442688"
     d="m 276.01601,584.54317 c -11.9287,-0.36471 -16.02359,-1.0128 -20.585,-3.25794 -5.92649,-2.91705 -9.71932,-8.28524 -11.12881,-15.75123 -0.54972,-2.91186 -0.65429,-5.36471 -0.46234,-10.84586 0.27362,-7.81353 0.90062,-10.87588 3.05922,-14.94165 2.66827,-5.02576 8.09792,-8.47422 15.89289,-10.09386 3.68906,-0.76651 16.49309,-1.72349 23.29519,-1.7411 l 2.32411,-0.006 v 4.1595 4.1595 l -10.51384,0.19001 c -9.57968,0.17312 -10.78233,0.28206 -13.53569,1.2261 -4.01207,1.37562 -6.97002,4.01124 -8.34739,7.43778 -0.94485,2.35053 -1.01523,3.15957 -1.00918,11.60184 0.008,10.64963 0.29407,12.0251 3.13719,15.06463 3.21919,3.44157 3.35592,3.47295 17.27754,3.96448 6.78004,0.23939 12.47675,0.43838 12.65936,0.44221 0.1826,0.004 0.33201,1.99905 0.33201,4.43383 0,4.31809 -0.0245,4.42503 -0.99605,4.35137 -0.54782,-0.0415 -5.67747,-0.21865 -11.39921,-0.39359 z"
     id="path47"
     transform="matrix(0.75000147,0,0,0.75000147,-0.00179763,0)" />
  <path
     style="fill:#3228b4;fill-opacity:1;stroke-width:0.442688"
     d="m 274.90929,584.53935 c -5.29714,-0.18623 -10.82,-0.62841 -12.83796,-1.02785 -7.29638,-1.44428 -12.65586,-5.28 -15.53169,-11.11584 -2.31294,-4.69357 -2.99711,-9.16677 -2.70835,-17.70752 0.26504,-7.8395 0.87847,-10.84398 3.04328,-14.90559 2.70213,-5.06971 8.11212,-8.5114 15.9174,-10.12622 3.87668,-0.80204 15.83931,-1.72301 22.63116,-1.74232 l 2.98814,-0.008 v 4.20554 4.20554 l -8.52174,0.009 c -4.68696,0.005 -9.90014,0.208 -11.58485,0.45151 -6.35602,0.91868 -10.82273,4.12374 -12.51776,8.98203 -0.66997,1.92025 -0.79538,3.715 -0.77865,11.14269 0.0126,5.59985 0.21818,9.53006 0.55932,10.69393 0.69812,2.3818 4.01315,6.05397 6.28625,6.96348 1.36677,0.54688 4.58779,0.8147 13.83742,1.15057 6.63079,0.24077 12.20539,0.44029 12.388,0.44336 0.1826,0.003 0.33201,1.99769 0.33201,4.43247 v 4.42688 l -2.10277,-0.073 c -1.15652,-0.0402 -6.28617,-0.22011 -11.39921,-0.39988 z"
     id="path48"
     transform="matrix(0.75000147,0,0,0.75000147,-0.00179763,0)" />
  <path
     style="fill:#3228b4;fill-opacity:1;stroke-width:0.442688"
     d="m 318.95675,586.51107 c -10.29944,-1.25248 -17.20607,-5.3744 -20.57721,-12.28062 -3.77748,-7.73867 -4.72563,-19.13208 -2.41411,-29.00919 2.15568,-9.2112 7.91798,-15.10841 17.23637,-17.63992 4.09874,-1.11349 16.70761,-1.11349 20.80634,0 9.63383,2.6172 15.52627,9.10492 17.52384,19.29417 0.94541,4.8224 0.66918,17.4974 -0.46936,21.53596 -2.60574,9.24303 -8.1608,14.71226 -17.32326,17.05562 -3.20655,0.8201 -11.69439,1.41953 -14.78261,1.04398 z m 9.42642,-10.5687 c 6.51968,-1.69817 9.51345,-6.12103 10.49124,-15.49928 0.63899,-6.12869 -0.2976,-13.32185 -2.21882,-17.04101 -1.1492,-2.22465 -3.84683,-4.67218 -6.4103,-5.816 -3.237,-1.44435 -10.09409,-1.4355 -13.37527,0.0173 -3.02036,1.33729 -5.93633,4.48652 -7.14475,7.71632 -1.38399,3.69903 -1.98439,10.02069 -1.42672,15.02193 1.1063,9.92141 4.28117,14.39685 11.32223,15.96031 1.98265,0.44024 6.3854,0.25959 8.76239,-0.35953 z"
     id="path49"
     transform="matrix(0.75000147,0,0,0.75000147,-0.00179763,0)" />
  <path
     style="fill:#3228b4;fill-opacity:1;stroke-width:0.442688"
     d="m 361.01211,556.45889 v -28.55338 l 8.74309,0.002 8.74309,0.002 7.276,22.1325 c 4.00179,12.17287 7.38985,22.1325 7.52901,22.1325 0.13917,0 3.5542,-9.91068 7.58897,-22.02373 l 7.33594,-22.02373 8.70818,-0.12003 8.70818,-0.12003 v 28.56273 28.56274 h -5.8143 -5.8143 l 0.27487,-6.75099 c 0.44643,-10.9646 0.75217,-38.23825 0.42059,-37.51781 -0.1681,0.36521 -3.53461,10.4253 -7.48115,22.35574 l -7.17552,21.69172 -6.35946,0.12192 -6.35946,0.12192 -7.47671,-22.25633 c -4.11219,-12.24097 -7.66554,-22.45553 -7.89633,-22.69901 -0.26479,-0.27934 -0.32305,1.92583 -0.15789,5.97629 0.14395,3.53044 0.36766,11.39922 0.49712,17.48618 0.12947,6.08696 0.35354,13.40792 0.49795,16.26879 l 0.26255,5.20158 h -6.02521 -6.02521 z"
     id="path50"
     transform="matrix(0.75000147,0,0,0.75000147,-0.00179763,0)" />
  <path
     style="fill:#3228b4;fill-opacity:1;stroke-width:0.442688"
     d="m 284.20574,584.68961 c -8.81856,-0.22425 -20.51968,-1.07358 -23.12963,-1.67887 -6.46829,-1.50009 -11.44914,-5.29168 -14.21759,-10.82287 -2.37724,-4.74957 -2.87063,-8.08625 -2.61549,-17.68799 0.17363,-6.53421 0.36488,-8.24092 1.19425,-10.6576 2.40504,-7.00798 6.51264,-10.67498 14.8308,-13.23997 3.19695,-0.98581 12.8211,-2.01381 22.72026,-2.42686 l 5.42293,-0.22628 v 4.18371 4.18371 h -9.45737 c -5.20155,0 -10.51584,0.20073 -11.80952,0.44607 -5.23722,0.99322 -9.38699,3.93043 -11.19727,7.92543 -0.79589,1.75641 -0.94456,3.11549 -1.09734,10.03142 -0.21839,9.88591 0.23257,13.19617 2.16414,15.88584 3.21984,4.48355 4.66948,4.85681 20.83563,5.36497 l 10.02327,0.31507 0.31281,4.1723 c 0.17204,2.29477 0.24339,4.20851 0.15856,4.25277 -0.0848,0.0443 -1.94714,0.0349 -4.13844,-0.0208 z"
     id="path51"
     transform="matrix(0.75000147,0,0,0.75000147,-0.00179763,0)" />
  <path
     style="fill:#3228b4;fill-opacity:1;stroke-width:0.442688"
     d="m 284.20574,584.68961 c -8.81856,-0.22425 -20.51968,-1.07358 -23.12963,-1.67887 -8.4051,-1.94927 -14.30566,-7.89155 -16.3049,-16.42017 -1.11084,-4.73873 -0.70193,-18.79047 0.66197,-22.74829 2.42804,-7.04577 6.86159,-10.98135 15.01483,-13.32838 3.12551,-0.89972 12.94184,-1.92974 22.31899,-2.34189 l 5.64427,-0.24809 v 4.19633 4.19634 l -9.62846,0.007 c -13.19922,0.009 -16.66542,0.903 -20.66504,5.3301 -3.02389,3.34709 -3.12979,3.86354 -3.12658,15.24835 0.003,9.58584 0.0589,10.28681 0.96017,11.9753 1.40141,2.62546 4.39307,5.42896 6.35792,5.95804 1.89126,0.50926 14.73402,1.30215 21.30178,1.31514 l 4.2749,0.008 0.31677,4.2252 c 0.17423,2.32386 0.24262,4.26616 0.15199,4.31621 -0.0906,0.0501 -1.95768,0.0454 -4.14898,-0.0103 z"
     id="path52"
     transform="matrix(0.75000147,0,0,0.75000147,-0.00179763,0)" />
  <path
     style="fill:#3228b4;fill-opacity:1;stroke-width:0.442688"
     d="m 284.20574,584.68961 c -8.81856,-0.22425 -20.51968,-1.07358 -23.12963,-1.67887 -8.4051,-1.94927 -14.30566,-7.89155 -16.3049,-16.42017 -1.11084,-4.73873 -0.70193,-18.79047 0.66197,-22.74829 2.4263,-7.04071 7.30715,-11.33134 15.31009,-13.45871 2.95212,-0.78474 13.37575,-1.83145 22.02373,-2.21156 l 5.64427,-0.24809 v 4.19633 4.19634 h -9.21514 c -10.03671,0 -13.25397,0.39431 -16.77169,2.05555 -2.81117,1.32758 -6.11178,4.87585 -6.8768,7.39282 -0.37885,1.24642 -0.55737,4.98263 -0.55329,11.57931 0.005,8.60174 0.10135,9.92009 0.82231,11.28854 1.28624,2.44145 4.72575,5.72634 6.49458,6.20263 1.76661,0.4757 15.28608,1.30151 21.52117,1.31458 l 4.05355,0.008 0.31677,4.2252 c 0.17423,2.32386 0.24262,4.26616 0.15199,4.31621 -0.0906,0.0501 -1.95768,0.0454 -4.14898,-0.0103 z"
     id="path53"
     transform="matrix(0.75000147,0,0,0.75000147,-0.00179763,0)" />
  <path
     style="fill:#3228b4;fill-opacity:1;stroke-width:0.442688"
     d=""
     id="path54"
     transform="matrix(0.75000147,0,0,0.75000147,-0.00179763,0)" />
  <path
     style="fill:#3228b4;fill-opacity:1;stroke-width:0.442688"
     d="m 438.03984,556.45889 v -28.55338 h 8.74658 8.74658 l 7.03151,21.13836 c 3.86733,11.62609 7.22626,21.63638 7.46429,22.24507 0.36959,0.94511 1.51319,-2.12542 7.83162,-21.02768 l 7.39883,-22.1344 8.70652,-0.12003 8.70652,-0.12003 v 28.56273 28.56274 h -5.69858 -5.69859 l 0.20281,-7.85771 c 0.51189,-19.83349 0.77076,-36.85456 0.56051,-36.85419 -0.12687,2.3e-4 -3.5183,10.01069 -7.53652,22.24548 l -7.30584,22.24508 -6.40815,0.11966 -6.40815,0.11966 -7.46905,-22.372 c -4.10798,-12.3046 -7.66063,-22.4904 -7.89479,-22.63511 -0.26726,-0.16518 -0.33265,1.19696 -0.17568,3.65943 0.13753,2.15741 0.35495,8.9028 0.48316,14.98976 0.12821,6.08696 0.35775,14.50357 0.51008,18.70357 l 0.27696,7.63637 h -6.03531 -6.03531 z"
     id="path55"
     transform="matrix(0.75000147,0,0,0.75000147,-0.00179763,0)" />
  <path
     style="fill:#3228b4;fill-opacity:1;stroke-width:1.25211"
     d="m 536.52953,585.90645 c -1.03299,-0.20781 -4.00315,-0.72488 -6.60036,-1.14903 -5.64419,-0.92177 -12.87544,-6.90536 -15.26936,-12.63482 -5.06268,-12.11669 -3.2796,-28.9391 3.91099,-36.89823 5.26237,-5.82481 10.81389,-7.82789 21.69496,-7.82789 18.83956,0 27.39698,8.8798 27.5046,28.54077 0.0857,15.65802 -4.11187,23.82916 -14.05991,27.3695 -5.52866,1.96755 -13.9723,3.24518 -17.18092,2.5997 z m 15.27657,-13.06504 c 7.20449,-8.89716 5.36727,-30.71262 -2.9619,-35.17025 -1.47661,-0.79026 -5.41809,-1.47807 -8.75884,-1.52847 -10.62761,-0.16032 -15.86217,6.31594 -15.99929,19.79456 -0.0815,8.01173 1.78144,14.67943 4.88654,17.4895 5.33793,4.83076 18.7257,4.48756 22.83349,-0.58534 z"
     id="path56"
     transform="matrix(0.75000147,0,0,0.75000147,-0.00179763,0)" />
  <path
     style="fill:#3228b4;fill-opacity:1;stroke-width:1.25211"
     d="m 577.84919,556.5633 v -28.79855 l 7.19964,0.0501 7.19963,0.0502 11.2349,20.08211 c 6.17919,11.04517 11.67283,20.35278 12.20808,20.68358 0.53525,0.33081 0.97319,-8.72871 0.97319,-20.13226 v -20.73373 h 5.6345 5.6345 v 28.79855 28.79855 l -6.57359,-0.0105 -6.57358,-0.0105 -12.52111,-22.00902 -12.52111,-22.00901 -0.34192,22.01952 -0.34192,22.01952 h -5.6056 -5.60561 z"
     id="path57"
     transform="matrix(0.75000147,0,0,0.75000147,-0.00179763,0)" />
  <path
     style="fill:#3228b4;fill-opacity:1;stroke-width:1.25211"
     d="m 671.75751,556.5633 v -28.79855 l 15.96441,0.10077 c 20.23933,0.12775 26.17951,1.58936 30.12292,7.4119 2.46259,3.63606 2.87523,5.53769 2.42304,11.16631 -0.45033,5.60529 -1.2042,7.3729 -4.33916,10.17398 -2.08678,1.86454 -4.55068,3.64225 -5.47535,3.95047 -1.53162,0.51054 2.73809,8.95143 11.11649,21.97642 1.79207,2.78595 1.74348,2.81725 -4.37253,2.81725 h -6.18474 l -6.57062,-11.89505 -6.57061,-11.89505 h -7.42243 -7.42242 v 11.89505 11.89505 h -5.6345 -5.6345 z m 35.59572,-5.72393 c 2.84506,-2.84506 2.56303,-10.14674 -0.4543,-11.76157 -1.33205,-0.71289 -7.24827,-1.29616 -13.14717,-1.29616 h -10.72525 v 7.51266 7.51267 h 11.17956 c 8.49375,0 11.65226,-0.4727 13.14716,-1.9676 z"
     id="path58"
     transform="matrix(0.75000147,0,0,0.75000147,-0.00179763,0)" />
  <path
     style="fill:#3228b4;fill-opacity:1;stroke-width:1.25211"
     d="m 730.09572,571.96943 c 3.13976,-7.44038 8.59158,-20.43022 12.11515,-28.86632 l 6.40649,-15.33836 h 5.85897 5.85897 l 11.58493,27.23341 c 6.37171,14.97838 11.87024,27.97159 12.21894,28.87381 0.48087,1.24419 -0.8328,1.54661 -5.43895,1.25211 -6.07048,-0.38812 -6.07399,-0.39096 -8.60593,-6.96186 l -2.53296,-6.57359 h -13.30118 -13.30117 l -2.49104,6.57359 c -2.46823,6.51339 -2.54411,6.57707 -8.28597,6.95438 l -5.79492,0.38079 z m 32.74851,-11.96282 c -0.32191,-0.86083 -2.2134,-5.92577 -4.20332,-11.25543 -1.98991,-5.32966 -3.99129,-9.6964 -4.4475,-9.70386 -0.83991,-0.0137 -8.56136,19.26816 -8.56136,21.37929 0,0.62983 4.00443,1.14514 8.89874,1.14514 6.59641,0 8.74731,-0.40494 8.31344,-1.56514 z"
     id="path59"
     transform="matrix(0.75000147,0,0,0.75000147,-0.00179763,0)" />
  <path
     style="fill:#3228b4;fill-opacity:1;stroke-width:0.442688"
     d="m 789.97684,556.45889 v -28.55338 h 6.19764 6.19763 v 28.55338 28.55338 h -6.19763 -6.19764 z"
     id="path60"
     transform="matrix(0.75000147,0,0,0.75000147,-0.00179763,0)" />
  <path
     style="fill:#3228b4;fill-opacity:1;stroke-width:0.442688"
     d="m 828.12606,584.5386 c -7.18102,-1.41317 -13.00641,-7.5829 -14.21962,-15.06014 -0.26812,-1.65242 -0.46184,-10.92757 -0.46378,-22.20534 l -0.003,-19.36761 h 5.71369 5.71368 l 0.15193,20.25298 0.15194,20.25298 1.10672,2.2111 c 1.36955,2.73621 4.03945,4.48874 7.76879,5.09942 1.44891,0.23727 6.26995,0.43255 10.71343,0.43396 l 8.07906,0.003 v 4.42688 4.42688 l -11.39922,-0.0485 c -6.26957,-0.0267 -12.26054,-0.218 -13.31327,-0.42517 z"
     id="path61"
     transform="matrix(0.75000147,0,0,0.75000147,-0.00179763,0)" />
  <path
     style="fill:#3228b4;fill-opacity:1;stroke-width:0.626055"
     d="m 244.47466,648.28043 v -25.04222 l 7.04312,0.0114 7.04312,0.0114 6.51195,18.30068 c 3.58157,10.06538 6.64533,18.54206 6.80835,18.83707 0.50585,0.91538 1.09682,-0.54003 7.755,-19.09848 l 6.47114,-18.03715 7.04313,-0.0125 7.04312,-0.0125 v 25.04222 25.04222 h -4.69541 -4.69542 l -0.0339,-17.9991 -0.0339,-17.99909 -6.46754,17.84258 -6.46755,17.84258 h -5.46096 -5.46095 l -6.34974,-17.84258 -6.34974,-17.84258 -0.16612,17.99909 -0.16611,17.9991 h -4.68582 -4.68581 z"
     id="path62"
     transform="matrix(0.75000147,0,0,0.75000147,-0.00179763,0)" />
  <path
     style="fill:#3228b4;fill-opacity:1;stroke-width:0.626055"
     d="m 321.02071,673.95521 c -5.89841,-1.25447 -10.00204,-4.38221 -12.32018,-9.39031 -1.19685,-2.58566 -1.32382,-4.15988 -1.50288,-18.63218 l -0.19558,-15.8079 h 4.73448 4.73448 l 9.8e-4,14.55579 c 8.4e-4,12.61172 0.14717,14.8456 1.09559,16.72569 1.6472,3.26527 4.64515,4.72357 9.62616,4.68247 4.69962,-0.0388 6.77272,-1.04425 8.71254,-4.22565 1.11854,-1.83446 1.22008,-3.23588 1.22222,-16.86948 l 0.002,-14.86882 h 4.7339 4.73389 l -0.19499,16.12093 -0.19499,16.12093 -1.86213,3.36207 c -2.12183,3.83097 -4.51911,5.88672 -8.51078,7.29826 -3.39554,1.20074 -11.22663,1.69138 -14.81505,0.9282 z"
     id="path63"
     transform="matrix(0.75000147,0,0,0.75000147,-0.00179763,0)" />
  <path
     style="fill:#3228b4;fill-opacity:1;stroke-width:0.626055"
     d="m 355.28647,651.65952 v -21.66313 l 15.18185,0.24253 c 14.14591,0.22597 15.35936,0.33596 17.7834,1.61188 4.88202,2.56971 6.75571,6.47176 6.37162,13.26919 -0.29564,5.23208 -2.32382,8.7041 -6.10287,10.4474 -1.38874,0.64063 -2.53225,1.39735 -2.54113,1.68159 -0.009,0.28425 1.95593,3.91397 4.36624,8.06606 2.41031,4.15209 4.38239,7.65238 4.38239,7.77843 0,0.12605 -2.34604,0.22918 -5.21341,0.22918 h -5.21341 l -4.39153,-7.98221 -4.39154,-7.98221 -5.42039,-0.18089 -5.42038,-0.18088 v 8.16309 8.1631 h -4.69542 -4.69542 z m 28.90577,-3.78915 c 1.18788,-1.07501 1.61637,-6.01794 0.65303,-7.53298 -0.96682,-1.5205 -4.18736,-2.07385 -12.07,-2.07385 h -8.09796 v 5.32147 5.32147 h 9.18502 c 7.6682,0 9.37409,-0.1711 10.32991,-1.03611 z"
     id="path64"
     transform="matrix(0.75000147,0,0,0.75000147,-0.00179763,0)" />
  <path
     style="fill:#3228b4;fill-opacity:1;stroke-width:0.626055"
     d="m 402.24063,651.72373 v -21.59891 h 6.26056 c 3.4433,0 6.26055,0.0732 6.26055,0.16255 0,0.46484 10.68026,29.50806 10.95062,29.77842 0.48591,0.4859 0.38177,0.74291 6.04394,-14.91564 l 5.32001,-14.7123 6.37227,-0.17842 6.37227,-0.17841 v 21.62081 21.62082 h -4.38239 -4.38239 v -13.18412 c 0,-7.25126 -0.23791,-13.03707 -0.52869,-12.85736 -0.29078,0.17971 -2.60206,6.12303 -5.13618,13.20737 l -4.60748,12.88062 -4.95248,-0.17977 -4.95247,-0.17977 -4.44716,-12.67762 c -2.44594,-6.9727 -4.66744,-12.67763 -4.93668,-12.67763 -0.26924,0 -0.48952,5.77536 -0.48952,12.83414 v 12.83414 h -4.38239 -4.38239 z"
     id="path65"
     transform="matrix(0.75000147,0,0,0.75000147,-0.00179763,0)" />
  <path
     style="fill:#3228b4;fill-opacity:1;stroke-width:0.626055"
     d="m 454.20324,672.81019 c 0,-0.28185 4.21349,-9.93093 9.36332,-21.4424 l 9.36332,-20.92994 h 4.78154 4.78154 l 9.58912,21.4424 9.58912,21.4424 h -5.17143 -5.17142 l -1.7295,-4.06936 -1.72951,-4.06936 h -10.18902 -10.18903 l -1.72951,4.06936 -1.7295,4.06936 h -4.91452 c -2.70299,0 -4.91452,-0.23061 -4.91452,-0.51246 z m 30.05066,-16.01906 c 0,-1.05884 -6.12063,-14.25078 -6.5943,-14.21287 -0.47875,0.0383 -6.55287,13.21282 -6.55287,14.21287 0,0.13974 2.95812,0.25407 6.57359,0.25407 3.61547,0 6.57358,-0.11433 6.57358,-0.25407 z"
     id="path66"
     transform="matrix(0.75000147,0,0,0.75000147,-0.00179763,0)" />
  <path
     style="fill:#3228b4;fill-opacity:1;stroke-width:0.626055"
     d="m 505.53978,651.70024 v -21.62241 l 5.74907,0.18001 5.74906,0.18001 7.86765,14.30629 7.86764,14.3063 0.16805,-14.46281 0.16805,-14.46281 h 4.68388 4.68388 v 21.59891 21.59892 l -5.79102,-0.0144 -5.79101,-0.0144 -7.19964,-13.22408 c -3.9598,-7.27325 -7.54283,-13.67602 -7.96229,-14.22839 -0.60677,-0.799 -0.76673,1.90713 -0.78257,13.23846 l -0.0199,14.24277 h -4.69542 -4.69542 z"
     id="path67"
     transform="matrix(0.75000147,0,0,0.75000147,-0.00179763,0)" />
  <path
     style="fill:#3228b4;fill-opacity:1;stroke-width:0.626055"
     d="m 588.80516,648.28043 v -25.12158 l 15.54191,0.1962 15.5419,0.19619 3.69144,1.88928 c 4.24807,2.17418 7.51547,6.03659 9.39698,11.10826 0.98296,2.6496 1.21679,4.90407 1.21679,11.73165 0,7.35129 -0.19131,8.95578 -1.46934,12.32284 -1.91886,5.05539 -4.91835,8.47218 -9.34624,10.64654 l -3.5837,1.75981 -15.49487,0.19619 -15.49487,0.19619 z m 29.17351,15.71059 c 3.2763,-1.48792 4.99324,-3.92831 6.27245,-8.9154 1.47478,-5.74956 0.90555,-12.66436 -1.42636,-17.32691 -1.41757,-2.83437 -2.34369,-3.83992 -4.57113,-4.96315 -2.49395,-1.25763 -3.71873,-1.40863 -11.42552,-1.40863 h -8.63212 v 16.9035 16.9035 l 8.60826,-0.0138 c 7.03786,-0.0112 9.07641,-0.22636 11.17442,-1.17916 z"
     id="path68"
     transform="matrix(0.75000147,0,0,0.75000147,-0.00179763,0)" />
  <path
     style="fill:#3228b4;fill-opacity:1;stroke-width:0.626055"
     d="m 642.01987,651.72373 v -21.59891 h 4.69542 4.69542 v 21.59891 21.59892 h -4.69542 -4.69542 z"
     id="path69"
     transform="matrix(0.75000147,0,0,0.75000147,-0.00179763,0)" />
  <path
     style="fill:#3228b4;fill-opacity:1;stroke-width:0.626055"
     d="m 670.81437,672.7377 c -5.06234,-1.5399 -8.95755,-5.37141 -10.96504,-10.78573 -0.97246,-2.62278 -1.22881,-4.82306 -1.19167,-10.22824 0.0579,-8.42379 1.3971,-12.47957 5.42468,-16.42832 4.07427,-3.99452 6.62668,-4.67643 18.78765,-5.01936 l 10.48643,-0.29571 v 4.07336 4.07337 l -9.23432,0.25127 c -7.0269,0.1912 -9.69847,0.49917 -11.17603,1.28834 -2.25731,1.20565 -3.882,3.45577 -4.41328,6.1122 l -0.3751,1.87549 h 12.59937 12.59936 v 4.06936 4.06936 h -12.52111 c -12.20486,0 -12.52111,0.0324 -12.52111,1.2832 0,1.76144 1.42963,4.35605 3.43243,6.22947 1.61776,1.51326 2.00367,1.57175 11.64151,1.76473 l 9.96828,0.1996 v 4.02628 4.02628 l -10.48643,-0.0538 c -5.76753,-0.0296 -11.19256,-0.26861 -12.05562,-0.53114 z"
     id="path70"
     transform="matrix(0.75000147,0,0,0.75000147,-0.00179763,0)" />
  <path
     style="fill:#3228b4;fill-opacity:1;stroke-width:0.626055"
     d="m 702.74725,669.25329 v -4.06936 h 12.73711 c 14.30138,0 14.80933,-0.15405 14.80933,-4.49117 0,-4.00893 -1.27066,-4.52268 -12.10752,-4.89532 -7.99117,-0.27479 -9.81983,-0.52357 -11.56931,-1.57398 -3.31906,-1.99281 -4.67678,-4.80067 -4.96239,-10.26258 -0.32265,-6.17002 1.25736,-9.61854 5.47517,-11.9501 2.72691,-1.5074 3.274,-1.56476 17.06001,-1.78862 l 14.24276,-0.23127 v 4.08933 4.08934 l -12.45681,0.2035 c -11.20296,0.18302 -12.58932,0.32355 -13.77322,1.39614 -0.88454,0.80136 -1.31641,1.95051 -1.31641,3.50278 0,3.80968 0.95327,4.19252 11.269,4.52573 10.47962,0.3385 13.22743,1.26612 15.74481,5.31519 1.24383,2.00062 1.47172,3.19117 1.47172,7.68864 0,6.45748 -1.3523,9.19602 -5.54274,11.22458 -2.46756,1.19452 -3.79564,1.29653 -16.87989,1.29653 h -14.20162 z"
     id="path71"
     transform="matrix(0.75000147,0,0,0.75000147,-0.00179763,0)" />
  <path
     style="fill:#3228b4;fill-opacity:1;stroke-width:0.626055"
     d="m 757.45676,672.49245 c -4.93564,-1.86163 -8.82314,-6.09922 -10.43252,-11.37204 -0.42137,-1.38054 -0.75916,-5.7499 -0.75065,-9.7097 0.0132,-6.11777 0.22766,-7.66484 1.42741,-10.29545 2.1769,-4.77311 4.17836,-6.98239 8.03498,-8.86925 3.34628,-1.63718 4.12025,-1.74741 14.09145,-2.00683 l 10.5507,-0.27451 v 4.07982 4.07981 l -8.92129,0.25493 c -11.44097,0.32693 -13.78529,1.43602 -15.47284,7.32016 l -0.56068,1.95498 h 12.4774 12.47741 v 4.06936 4.06936 h -12.53304 -12.53303 l 0.40537,1.72166 c 0.64502,2.73942 2.71856,5.74324 4.65628,6.74527 1.3349,0.69031 4.08972,0.92391 10.89553,0.92391 h 9.10889 v 4.06936 4.06936 l -10.48643,-0.0476 c -6.38423,-0.029 -11.24867,-0.33513 -12.43494,-0.78257 z"
     id="path72"
     transform="matrix(0.75000147,0,0,0.75000147,-0.00179763,0)" />
  <path
     style="fill:#3228b4;fill-opacity:1;stroke-width:0.626055"
     d="m 799.9409,672.14581 c -4.48956,-1.55097 -6.55307,-3.34447 -9.09044,-7.90097 -1.3212,-2.37255 -1.40525,-3.33536 -1.59849,-18.31212 l -0.20397,-15.8079 h 4.74287 4.74287 l 9.7e-4,14.24276 c 8.4e-4,12.30558 0.14986,14.54079 1.0956,16.43396 1.7782,3.55955 4.24075,4.38028 13.14619,4.38141 l 7.66918,9.8e-4 v 4.06936 4.06936 l -8.60826,-0.0204 c -6.64866,-0.0158 -9.35681,-0.27903 -11.89652,-1.1564 z"
     id="path73"
     transform="matrix(0.75000147,0,0,0.75000147,-0.00179763,0)" />
  <path
     style="fill:#3228b4;fill-opacity:1;stroke-width:0.626055"
     d="m 905.90225,658.92337 -10.00635,-10.02103 7.51266,-7.51267 7.51267,-7.51266 10.00635,10.02103 10.00635,10.02103 -7.51266,7.51267 -7.51267,7.51267 z"
     id="path74"
     transform="matrix(0.75000147,0,0,0.75000147,-0.00179763,0)" />
  <path
     style="fill:#3228b4;fill-opacity:1;stroke-width:0.885376"
     d="m 927.64077,637.68068 -9.94002,-9.96829 26.78866,-26.77787 26.78867,-26.77786 9.50756,9.53713 c 5.22915,5.24542 9.50755,9.93062 9.50755,10.41155 0,0.48094 -11.86029,12.725 -26.3562,27.20903 l -26.3562,26.33461 z"
     id="path75"
     transform="matrix(0.75000147,0,0,0.75000147,-0.00179763,0)" />
  <path
     style="fill:#3228b4;fill-opacity:1;stroke-width:0.626055"
     d="m 922.31,642.77658 -7.36053,-7.37976 1.91187,-1.83169 1.91187,-1.83168 7.33006,7.33005 7.33005,7.33005 -1.88139,1.8814 -1.8814,1.88139 z"
     id="path76"
     transform="matrix(0.75000147,0,0,0.75000147,-0.00179763,0)" />
  <path
     style="fill:#3228b4;fill-opacity:1;stroke-width:0.626055"
     d="m 982.27972,582.54331 -16.89609,-16.90479 13.92684,-13.92684 13.92684,-13.92685 17.05649,17.05647 17.0564,17.05646 -13.7645,13.77517 c -7.5704,7.57635 -13.90968,13.77517 -14.08717,13.77517 -0.17749,0 -7.92596,-7.60715 -17.21881,-16.90479 z"
     id="path77"
     transform="matrix(0.75000147,0,0,0.75000147,-0.00179763,0)" />
  <path
     style="fill:#3228b4;fill-opacity:1;stroke-width:0.626055"
     d=""
     id="path78"
     transform="matrix(0.75000147,0,0,0.75000147,-0.00179763,0)" />
  <path
     style="fill:#3228b4;fill-opacity:1;stroke-width:0.626055"
     d="m 1011.5148,552.92931 -11.4471,-11.45969 1.308,-1.18371 c 1.3034,-1.17958 1.3482,-1.14349 12.8416,10.33735 10.8546,10.84264 11.4739,11.58716 10.518,12.6434 -0.5586,0.61729 -1.1861,1.12234 -1.3945,1.12234 -0.2084,0 -5.5301,-5.15686 -11.826,-11.45969 z"
     id="path79"
     transform="matrix(0.75000147,0,0,0.75000147,-0.00179763,0)" />
  <path
     style="fill:#3228b4;fill-opacity:1;stroke-width:0.626055"
     d="m 1019.5273,552.80287 -2.7689,-2.82134 4.0274,-4.06356 4.0274,-4.06356 2.9969,2.95183 2.9969,2.95183 -3.8981,3.93307 c -2.144,2.1632 -4.0589,3.93308 -4.2554,3.93308 -0.1965,0 -1.6033,-1.26961 -3.1262,-2.82135 z"
     id="path80"
     transform="matrix(0.75000147,0,0,0.75000147,-0.00179763,0)" />
  <path
     style="fill:#3228b4;fill-opacity:1;stroke-width:0.626055"
     d="m 1011.8403,545.11802 -2.9485,-2.99354 4.0649,-4.02877 4.0649,-4.02877 3.1364,3.08923 3.1364,3.08923 -3.8982,3.93308 c -2.1439,2.16319 -4.0577,3.93307 -4.2527,3.93307 -0.1951,0 -1.6815,-1.34709 -3.3032,-2.99353 z"
     id="path81"
     transform="matrix(0.75000147,0,0,0.75000147,-0.00179763,0)" />
  <path
     style="fill:#3228b4;fill-opacity:1;stroke-width:0.626055"
     d="m 1012.151,544.80315 -2.6325,-2.68236 3.751,-3.71182 3.7509,-3.71182 2.8246,2.77214 2.8246,2.77214 -3.5842,3.62203 c -1.9713,1.99212 -3.7457,3.62204 -3.943,3.62204 -0.1974,0 -1.5435,-1.20706 -2.9914,-2.68235 z"
     id="path82"
     transform="matrix(0.75000147,0,0,0.75000147,-0.00179763,0)" />
  <path
     style="fill:#3228b4;fill-opacity:1;stroke-width:0.626055"
     d="m 1004.0236,537.30106 -3.2724,-3.31351 4.074,-4.03769 4.0739,-4.03769 3.2748,3.27483 3.2748,3.27482 -4.0764,4.07638 -4.0763,4.07638 z"
     id="path83"
     transform="matrix(0.75000147,0,0,0.75000147,-0.00179763,0)" />
  <path
     style="fill:#3228b4;fill-opacity:1;stroke-width:0.626055"
     d="m 1027.8137,561.09117 -3.2723,-3.31351 4.0739,-4.03769 4.0739,-4.03769 3.2748,3.27483 3.2748,3.27482 -4.0764,4.07638 -4.0763,4.07637 z"
     id="path84"
     transform="matrix(0.75000147,0,0,0.75000147,-0.00179763,0)" />
  <path
     style="fill:#3228b4;fill-opacity:1;stroke-width:0.626055"
     d="m 1025.2948,539.16283 -11.4404,-11.45295 1.6075,-1.51021 1.6075,-1.51021 11.5444,11.53173 11.5444,11.53172 -1.3448,1.43143 c -0.7396,0.78729 -1.5098,1.43144 -1.7115,1.43144 -0.2017,0 -5.5149,-5.15383 -11.8071,-11.45295 z"
     id="path85"
     transform="matrix(0.75000147,0,0,0.75000147,-0.00179763,0)" />
  <path
     style="fill:#3228b4;fill-opacity:1;stroke-width:0.626055"
     d="m 1030.3242,534.80142 -17.059,-17.06754 7.5196,-7.50006 7.5197,-7.50005 17.0535,17.05351 17.0535,17.05352 -7.5141,7.51408 -7.5141,7.51408 z"
     id="path86"
     transform="matrix(0.75000147,0,0,0.75000147,-0.00179763,0)" />
  <path
     style="fill:#3228b4;fill-opacity:1;stroke-width:0.626055"
     d="m 1011.3926,503.49532 v -11.72876 h 7.5127 7.5126 v 4.23566 4.23567 l -7.5126,7.49309 -7.5127,7.49309 z"
     id="path87"
     transform="matrix(0.75000147,0,0,0.75000147,-0.00179763,0)" />
  <path
     style="fill:#3228b4;fill-opacity:1;stroke-width:0.626055"
     d=""
     id="path88"
     transform="matrix(0.75000147,0,0,0.75000147,-0.00179763,0)" />
  <path
     style="fill:#3228b4;fill-opacity:1;stroke-width:0.626055"
     d=""
     id="path89"
     transform="matrix(0.75000147,0,0,0.75000147,-0.00179763,0)" />
  <path
     style="fill:#3228b4;fill-opacity:1;stroke-width:0.626055"
     d="m 1046.4517,518.37392 -6.5482,-6.57053 1.5652,-1.56514 1.5651,-1.56514 6.5482,6.57053 6.5482,6.57054 -1.5652,1.56514 -1.5651,1.56514 z"
     id="path90"
     transform="matrix(0.75000147,0,0,0.75000147,-0.00179763,0)" />
  <path
     style="fill:#3228b4;fill-opacity:1;stroke-width:0.626055"
     d="m 1019.2183,584.42277 c 5.846,-5.85362 10.9844,-10.64294 11.4186,-10.64294 0.6043,0 0.7895,2.4963 0.7895,10.64294 v 10.64294 h -11.4186 -11.4186 z"
     id="path91"
     transform="matrix(0.75000147,0,0,0.75000147,-0.00179763,0)" />
  <path
     style="fill:#3228b4;fill-opacity:1;stroke-width:0.626055"
     d="m 1034.5566,584.42277 v -4.38239 h 3.1303 3.1303 v 4.38239 4.38239 h -3.1303 -3.1303 z"
     id="path92"
     transform="matrix(0.75000147,0,0,0.75000147,-0.00179763,0)" />
  <path
     style="fill:#3228b4;fill-opacity:1;stroke-width:0.442688"
     d="m 1034.3407,593.202 v -1.99209 h 3.3201 3.3202 v 1.99209 1.9921 h -3.3202 -3.3201 z"
     id="path93"
     transform="matrix(0.75000147,0,0,0.75000147,-0.00179763,0)" />
  <path
     style="fill:#3228b4;fill-opacity:1;stroke-width:0.442688"
     d="m 1034.3407,575.71582 v -2.21344 h 3.3201 3.3202 v 2.21344 2.21344 h -3.3202 -3.3201 z"
     id="path94"
     transform="matrix(0.75000147,0,0,0.75000147,-0.00179763,0)" />
  <path
     style="fill:#3228b4;fill-opacity:1;stroke-width:0.442688"
     d="m 1043.6371,585.23362 v -7.74704 h 6.8617 6.8616 v 7.74704 7.74704 h -6.8616 -6.8617 z"
     id="path95"
     transform="matrix(0.75000147,0,0,0.75000147,-0.00179763,0)" />
  <path
     style="fill:#3228b4;fill-opacity:1;stroke-width:0.442688"
     d="m 1050.9105,514.16825 -1.3478,-1.3478 4.4522,-4.39752 4.4523,-4.39751 1.3224,1.31844 1.3225,1.31844 -4.4269,4.42688 -4.4269,4.42688 z"
     id="path96"
     transform="matrix(0.75000147,0,0,0.75000147,-0.00179763,0)" />
  <path
     style="fill:#3228b4;fill-opacity:1;stroke-width:0.442688"
     d="m 896.98928,667.89834 -7.41266,-7.42229 3.76782,-3.74825 3.76782,-3.74824 7.52107,7.5113 7.52107,7.51131 -3.64023,3.65923 c -2.00213,2.01258 -3.74643,3.65924 -3.87623,3.65924 -0.1298,0 -3.5717,-3.34003 -7.64866,-7.4223 z"
     id="path97"
     transform="matrix(0.75000147,0,0,0.75000147,-0.00179763,0)" />
  <path
     style="fill:#3228b4;fill-opacity:1;stroke-width:0.442688"
     d=""
     id="path98"
     transform="matrix(0.75000147,0,0,0.75000147,-0.00179763,0)" />
  <path
     style="fill:#3228b4;fill-opacity:1;stroke-width:0.442688"
     d="m 886.9173,669.33559 -1.04794,-1.11549 2.16784,-2.20094 2.16785,-2.20094 1.24412,1.19195 1.24412,1.19194 -2.09254,2.12448 c -1.15089,1.16846 -2.2147,2.12448 -2.36402,2.12448 -0.14932,0 -0.74306,-0.50197 -1.31943,-1.11548 z"
     id="path99"
     transform="matrix(0.75000147,0,0,0.75000147,-0.00179763,0)" />
  <path
     style="fill:#3228b4;fill-opacity:1;stroke-width:0.442688"
     d=""
     id="path100"
     transform="matrix(0.75000147,0,0,0.75000147,-0.00179763,0)" />
  <path
     style="fill:#3228b4;fill-opacity:1;stroke-width:0.442688"
     d="m 875.51864,689.36885 -3.6403,-3.65931 7.19892,-7.189 7.19891,-7.18899 3.74803,3.76759 3.74802,3.7676 -7.07033,7.08071 c -3.88868,3.89439 -7.17667,7.08071 -7.30664,7.08071 -0.12997,0 -1.87444,-1.64669 -3.87661,-3.65931 z"
     id="path101"
     transform="matrix(0.75000147,0,0,0.75000147,-0.00179763,0)" />
  <path
     style="fill:#3228b4;fill-opacity:1;stroke-width:0.442688"
     d="m 891.35798,673.77698 -1.51445,-1.56252 2.18113,-2.21443 2.18113,-2.21442 1.55513,1.55513 1.55513,1.55512 -2.22181,2.22182 -2.22181,2.22181 z"
     id="path102"
     transform="matrix(0.75000147,0,0,0.75000147,-0.00179763,0)" />
  <path
     style="fill:#3228b4;fill-opacity:1;stroke-width:0.442688"
     d="m 895.65556,678.07865 -1.19686,-1.24925 2.21302,-2.17974 2.21302,-2.17974 1.20641,1.20641 1.20641,1.20641 -2.22258,2.22258 -2.22257,2.22257 z"
     id="path103"
     transform="matrix(0.75000147,0,0,0.75000147,-0.00179763,0)" />
  <path
     style="fill:#3228b4;fill-opacity:1;stroke-width:0.442688"
     d="m 869.94947,691.81077 c 0.15261,-1.88696 0.31009,-3.47466 0.34996,-3.52822 0.0399,-0.0536 1.65088,1.49032 3.58002,3.43084 l 3.50752,3.52821 h -3.85749 -3.85749 z"
     id="path104"
     transform="matrix(0.75000147,0,0,0.75000147,-0.00179763,0)" />
  <path
     style="fill:#3228b4;fill-opacity:1;stroke-width:0.442688"
     d="m 243.69978,692.58547 v -2.21344 h 303.90535 303.90536 v 2.21344 2.21344 H 547.60513 243.69978 Z"
     id="path105"
     transform="matrix(0.75000147,0,0,0.75000147,-0.00179763,0)" />
  <path
     style="fill:#3228b4;fill-opacity:1;stroke-width:0.0391285"
     d="m 279.74897,584.92441 c -4.71597,-0.0546 -9.66517,-0.25579 -12.3646,-0.50268 -7.35801,-0.67299 -11.36473,-1.89523 -15.23807,-4.64835 -4.40841,-3.13345 -7.15316,-8.16365 -8.25577,-15.13005 -0.39575,-2.50039 -0.55752,-5.03943 -0.51853,-8.13872 0.0348,-2.76761 0.21481,-5.36261 0.55638,-8.02133 0.29044,-2.26064 0.52264,-3.31016 1.15189,-5.20627 1.29604,-3.90538 3.23748,-6.79602 6.07137,-9.03975 0.78554,-0.62194 0.79722,-0.62834 1.1239,-0.61487 l 0.28217,0.0116 -0.46127,0.3204 c -2.15002,1.49339 -3.9601,3.47689 -5.13516,5.62713 -1.97042,3.60566 -2.6946,6.51581 -3.01361,12.11026 -0.24906,4.36774 -0.25592,8.27735 -0.0194,11.03423 0.29916,3.48636 0.99297,6.22453 2.29416,9.05397 2.67259,5.81159 7.48858,9.64848 14.31442,11.40429 1.7814,0.45822 3.58491,0.70039 7.31703,0.98247 3.1638,0.23913 4.74436,0.31324 12.12982,0.5688 2.78693,0.0964 5.18159,0.18096 5.32147,0.18784 0.28399,0.014 -4.36258,0.0148 -5.55624,0.001 z"
     id="path106"
     transform="matrix(0.75000147,0,0,0.75000147,-0.00179763,0)" />
  <path
     style="fill:#3228b4;fill-opacity:1;stroke-width:0.0391285"
     d="m 277.49908,584.86975 c -5.58912,-0.12049 -9.48682,-0.34906 -12.63849,-0.74116 -6.15778,-0.76608 -9.99609,-2.19182 -13.57758,-5.0434 -0.56616,-0.45077 -1.94688,-1.81675 -2.4294,-2.40346 -3.14599,-3.82528 -4.90033,-9.06006 -5.37853,-16.04906 -0.0676,-0.98806 -0.0926,-4.49928 -0.0414,-5.83015 0.0966,-2.51583 0.30265,-4.84694 0.63212,-7.15272 0.19949,-1.39613 0.39855,-2.30435 0.78304,-3.57268 0.92425,-3.04886 2.19961,-5.4983 3.91058,-7.51062 0.74796,-0.8797 2.01333,-2.05136 2.90289,-2.68792 0.3054,-0.21855 0.32169,-0.22499 0.56859,-0.22499 h 0.25418 l -0.49485,0.35163 c -0.93919,0.66737 -1.6017,1.23359 -2.41078,2.06038 -1.40691,1.4377 -2.32003,2.76052 -3.27524,4.74479 -1.7183,3.56942 -2.28466,6.76348 -2.51766,14.19854 -0.0515,1.6449 -0.0276,5.61006 0.0399,6.60195 0.2344,3.44532 0.69405,5.83364 1.59136,8.26856 0.98333,2.66834 2.2914,4.93027 3.91872,6.77633 2.37639,2.69581 5.40581,4.66188 9.13937,5.93138 2.58911,0.88035 4.46988,1.20981 8.9085,1.56049 3.17235,0.25064 4.46667,0.3135 12.50155,0.60713 l 4.03023,0.14729 -2.52378,-10e-4 c -1.38809,-7.7e-4 -3.14006,-0.0147 -3.89329,-0.0309 z"
     id="path107"
     transform="matrix(0.75000147,0,0,0.75000147,-0.00179763,0)" />
  <path
     style="fill:#3228b4;fill-opacity:1;stroke-width:0.0391285"
     d="m 244.59304,566.903 c -0.35808,-1.57199 -0.59422,-3.37626 -0.7259,-5.54646 -0.16057,-2.64632 -0.0386,-8.15618 0.25638,-11.58202 0.37422,-4.346 1.15348,-7.07912 2.92294,-10.25166 2.6824,-4.80941 7.93265,-8.14771 15.34903,-9.75948 2.03813,-0.44293 5.69756,-0.87296 10.66251,-1.25297 5.1336,-0.39292 9.19087,-0.56874 13.13738,-0.56928 l 2.20098,-3e-4 v 4.18277 4.18276 l -6.42685,0.0198 c -5.98001,0.0184 -7.18369,0.0366 -9.61582,0.14516 -2.43823,0.10885 -3.62626,0.20838 -4.68848,0.39277 -3.78527,0.65711 -6.79493,2.09474 -9.00658,4.30217 -0.95418,0.95236 -1.66815,1.93942 -2.26423,3.13028 -0.69912,1.39673 -1.07317,2.71964 -1.21696,4.30413 -0.1546,1.70367 -0.22768,6.34046 -0.16415,10.41528 0.0658,4.22252 0.17977,6.54925 0.38291,7.81958 l 0.0249,0.15552 h -5.40399 -5.40398 z"
     id="path108"
     transform="matrix(0.75000147,0,0,0.75000147,-0.00179763,0)" />
  <path
     style="fill:#3228b4;fill-opacity:1"
     d="m 244.59553,566.92257 c -0.0117,-0.0377 -0.0822,-0.37662 -0.15655,-0.75323 -0.62752,-3.178 -0.78883,-7.11265 -0.53098,-12.95152 0.27938,-6.32623 0.87897,-9.23349 2.6237,-12.72166 0.56937,-1.13832 0.99696,-1.83898 1.68046,-2.75365 2.8859,-3.86192 7.68022,-6.55753 14.19629,-7.98187 3.18118,-0.69537 10.65021,-1.3791 19.06217,-1.745 0.50574,-0.022 2.27092,-0.0502 3.92263,-0.0627 l 3.00311,-0.0227 v 4.18747 4.18747 l -6.40729,0.0206 c -3.524,0.0113 -6.91791,0.0394 -7.54201,0.0624 -3.84779,0.1419 -5.45901,0.25241 -6.68126,0.45824 -4.03258,0.67909 -7.28462,2.30167 -9.52045,4.75016 -1.49423,1.63636 -2.54737,3.74625 -2.91006,5.83014 -0.26434,1.51879 -0.35954,4.32177 -0.33159,9.76255 0.0245,4.76584 0.13357,7.65912 0.35101,9.31009 0.031,0.23536 0.0563,0.44225 0.0563,0.45976 0,0.0175 -2.42869,0.0318 -5.39709,0.0318 -5.10587,0 -5.39824,-0.004 -5.41844,-0.0685 z"
     id="path109"
     transform="matrix(0.75000147,0,0,0.75000147,-0.00179763,0)" />
  <path
     style="fill:#3228b4;fill-opacity:1;stroke-width:0.0391285"
     d="m 252.00689,533.59886 c 0,-0.009 0.21569,-0.15562 0.47932,-0.32676 3.60059,-2.33735 8.18718,-3.7721 14.72209,-4.6053 3.64422,-0.46463 8.58131,-0.73591 13.0689,-0.7181 1.033,0.004 1.75492,0.0122 1.60427,0.0181 -7.67203,0.29667 -15.64574,0.99248 -19.01049,1.65892 -3.75246,0.74323 -7.43949,2.14242 -9.9557,3.77807 -0.3186,0.20711 -0.32916,0.21072 -0.61628,0.21072 -0.16066,0 -0.29211,-0.007 -0.29211,-0.0156 z"
     id="path110"
     transform="matrix(0.75000147,0,0,0.75000147,-0.00179763,0)" />
  <path
     style="fill:#3228b4;fill-opacity:1;stroke-width:0.0391285"
     d="m 252.18297,533.57929 c -0.0663,-0.0267 -0.0167,-0.0714 0.32479,-0.29231 3.08469,-1.99588 6.86721,-3.32239 11.94198,-4.188 3.41157,-0.58191 7.25457,-0.92798 11.99287,-1.07998 1.48079,-0.0475 4.58219,-0.0451 3.61939,0.003 -7.78992,0.38762 -14.17024,0.984 -17.35348,1.62208 -3.65531,0.7327 -6.92469,1.97752 -9.79814,3.73064 -0.18098,0.11042 -0.36586,0.201 -0.41085,0.20129 -0.045,3e-4 -0.11701,0.008 -0.16005,0.0177 -0.043,0.009 -0.11347,0.003 -0.15651,-0.0143 z"
     id="path111"
     transform="matrix(0.75000147,0,0,0.75000147,-0.00179763,0)" />
  <path
     style="fill:#3228b4;fill-opacity:1;stroke-width:0.0391285"
     d="m 252.18516,533.58012 c -0.0656,-0.0265 -0.0441,-0.0522 0.15652,-0.18739 0.12791,-0.0862 0.43506,-0.27995 0.68255,-0.43058 5.02177,-3.05651 12.28274,-4.59032 23.39882,-4.94277 1.07259,-0.034 4.60974,-0.0453 4.03023,-0.0129 -0.11836,0.007 -0.76105,0.0392 -1.42819,0.0723 -6.02381,0.29932 -12.00778,0.83767 -15.24053,1.37112 -3.81687,0.62983 -7.57249,1.95299 -10.48449,3.69384 -0.39706,0.23737 -0.75802,0.43182 -0.80213,0.43211 -0.0441,3e-4 -0.11542,0.008 -0.15846,0.0177 -0.043,0.009 -0.11248,0.003 -0.15432,-0.0135 z"
     id="path112"
     transform="matrix(0.75000147,0,0,0.75000147,-0.00179763,0)" />
  <path
     style="fill:#3228b4;fill-opacity:1;stroke-width:0.0195642"
     d="m 256.11062,568.83408 c -0.42752,-0.79591 -0.60213,-1.34177 -0.71783,-2.24411 -0.0726,-0.56639 -0.13878,-1.33792 -0.19683,-2.29542 -0.0393,-0.64757 -0.0334,-0.8034 0.0115,-0.30662 0.20784,2.2974 0.50479,3.79 0.97012,4.87638 0.0594,0.13863 0.10455,0.25547 0.10037,0.25964 -0.004,0.004 -0.0795,-0.12626 -0.16738,-0.28987 z"
     id="path113"
     transform="matrix(0.75000147,0,0,0.75000147,-0.00179763,0)" />
  <path
     style="fill:#3228b4;fill-opacity:1;stroke-width:0.0195642"
     d="m 256.01958,568.6287 c -0.37052,-0.7398 -0.51578,-1.23587 -0.62567,-2.13655 -0.0767,-0.62832 -0.15269,-1.52816 -0.17688,-2.09337 l -0.01,-0.22499 0.0279,0.24455 c 0.17659,1.55111 0.29091,2.27074 0.49029,3.08648 0.096,0.39272 0.26233,0.92203 0.38129,1.21328 0.0421,0.1031 0.0728,0.19122 0.0682,0.19582 -0.005,0.005 -0.0745,-0.12374 -0.15542,-0.28522 z"
     id="path114"
     transform="matrix(0.75000147,0,0,0.75000147,-0.00179763,0)" />
  <path
     style="fill:#3228b4;fill-opacity:1;stroke-width:0.0195642"
     d="m 256.00862,568.60678 c -0.41179,-0.82238 -0.54704,-1.35337 -0.67566,-2.65264 -0.0406,-0.41017 -0.10421,-1.26518 -0.11499,-1.54558 -0.0104,-0.27153 -0.01,-0.26837 0.0672,0.43042 0.18861,1.70873 0.45905,2.98553 0.82056,3.87402 0.043,0.10563 0.0743,0.19594 0.0695,0.20069 -0.005,0.005 -0.0797,-0.13337 -0.16662,-0.30691 z"
     id="path115"
     transform="matrix(0.75000147,0,0,0.75000147,-0.00179763,0)" />
  <path
     style="fill:#3228b4;fill-opacity:1;stroke-width:0.0195642"
     d=""
     id="path116"
     transform="matrix(0.75000147,0,0,0.75000147,-0.00179763,0)" />
  <path
     style="fill:#3228b4;fill-opacity:1;stroke-width:0.0195642"
     d="m 256.68716,569.78486 c -0.64733,-0.97466 -1.06412,-2.39909 -1.32409,-4.52525 -0.19517,-1.5962 -0.26754,-2.78639 -0.31404,-5.16496 -0.0171,-0.87329 -0.0211,-2.00538 -0.006,-1.71187 0.003,0.0646 0.0195,0.39911 0.0361,0.74344 0.0964,2.00778 0.28708,4.56299 0.44016,5.89862 0.26221,2.2876 0.65089,3.77605 1.26334,4.83785 0.049,0.085 0.085,0.15858 0.08,0.16356 -0.005,0.005 -0.0839,-0.10364 -0.17542,-0.24139 z"
     id="path117"
     transform="matrix(0.75000147,0,0,0.75000147,-0.00179763,0)" />
</svg>
