<svg width="223" height="142" viewBox="0 0 223 142" fill="none" xmlns="http://www.w3.org/2000/svg">
<path d="M165.25 111.499C165.25 125.754 159.587 139.426 149.507 149.506C139.427 159.586 125.755 165.249 111.5 165.249C97.2446 165.249 83.5731 159.586 73.493 149.506C63.413 139.426 57.75 125.754 57.75 111.499C57.75 97.2437 63.413 83.5722 73.493 73.4921C83.5731 63.4121 97.2446 57.7492 111.5 57.7492C125.755 57.7492 139.427 63.4121 149.507 73.4921C159.587 83.5722 165.25 97.2437 165.25 111.499ZM165.25 111.499C165.25 131.291 177.278 147.332 192.125 147.332C206.972 147.332 219 131.291 219 111.499C219 86.6284 210.376 62.5273 194.598 43.3021C178.82 24.077 156.864 10.9174 132.471 6.06558C108.079 1.21375 82.758 4.9699 60.8241 16.694C38.8902 28.4181 21.7001 47.3848 12.1827 70.3623C2.66525 93.3399 1.40942 118.907 8.62916 142.706C15.8489 166.506 31.0975 187.066 51.7768 200.883C72.4561 214.7 97.2866 220.92 122.038 218.482C146.788 216.044 169.928 205.1 187.514 187.513M165.25 111.499V66.7075" stroke="white" stroke-opacity="0.6" stroke-width="8" stroke-linecap="round" stroke-linejoin="round"/>
</svg>
