<svg width="512" height="512" viewBox="0 0 512 512" fill="none" xmlns="http://www.w3.org/2000/svg">
<g clip-path="url(#clip0_15_50)">
<path d="M112.638 389.774C106.709 389.663 102.026 386.905 99.1065 382.004C96.1603 374.726 97.0464 368.559 101.029 364.365C105.167 359.699 109.547 354.615 113.349 350.232C141.904 317.296 167.901 291.633 179.428 280.827C184.443 276.194 188.404 272.069 191.74 268.966C197.977 263.119 202.102 260.865 204.158 260.069C206.32 259.233 206.787 259.708 206.787 259.708C206.787 259.708 207.162 260.105 206.399 262.192C205.571 264.456 203.816 267.839 199.821 275.149C197.913 278.624 194.562 284.532 190.398 290.311C175.93 310.551 163.882 325.435 131.137 365.762C145.342 365.615 255.801 364.601 379.358 365.682L317.319 290.591C312.451 283.847 308.328 277.223 306.116 273.542C303.597 269.348 302.004 266.396 301.054 264.375C299.134 260.289 299.75 259.642 299.75 259.642C299.75 259.642 300.533 258.882 304.596 261.129C306.639 262.26 309.464 264.146 313.357 267.342C317.857 271.038 321.504 274.505 328.333 280.903C339.667 291.265 369.478 319.666 399.553 353.879C401.042 355.57 402.904 357.476 404.979 359.815C406.146 361.127 407.38 362.564 408.63 364.142C409.562 365.256 410.746 366.872 412.013 369.088C414.432 374.068 414.063 379.145 410.841 383.901C407.654 387.514 404.096 389.388 400.438 389.452C394.977 389.883 389.766 389.92 384.525 389.883C293.897 389.209 203.267 389.662 112.638 389.774Z" fill="black"/>
<path d="M106.062 213.912C105.929 240.357 105.971 266.821 106.065 293.304C106.074 296.06 106.072 298.811 106.061 301.558C105.975 322.64 104.214 338.276 102.447 347.778C101.294 354.109 99.7123 359.288 98.7213 362.03C98.0912 363.803 97.2348 365.499 96.7676 366.384C96.3733 367.225 95.0704 369.093 95.0088 369.18C94.5909 369.771 94.2928 370.001 94.2928 370.001C94.2928 370.001 94 370.209 93.2956 370.069C92.568 369.924 91.4212 369.348 90.1762 367.848C89.1901 366.702 88.2276 365.121 87.2774 362.905C85.7072 359.286 84.4943 354.653 83.479 347.605C81.9156 336.806 81.2401 323.288 81.328 301.458C81.3388 298.765 81.3407 296.077 81.331 293.392C81.2368 266.877 81.1946 240.342 81.328 213.788C81.328 213.787 81.332 213.122 81.332 213.122C81.4787 190.475 81.951 177.648 83.5024 166.554C84.3858 160.235 85.4175 155.988 86.7553 152.617C87.4061 150.845 88.117 149.306 89.0637 147.971C89.9459 146.726 90.7864 146.026 91.4614 145.654C92.793 144.921 93.4131 145.344 93.4131 145.344C93.4131 145.344 93.9552 145.793 94.7071 146.917C95.0792 147.473 95.5373 148.145 96.1504 149.031C96.6476 149.75 97.6758 151.182 98.1681 153.011C99.2371 155.669 100.777 160.248 102.001 166.055C103.995 175.393 106.145 191.475 106.065 213.249C106.065 213.248 106.062 213.912 106.062 213.912Z" fill="black"/>
<path d="M430.756 206.852C430.748 210.822 430.738 214.81 430.71 218.814C430.539 243.347 430.472 267.876 430.535 292.4C430.54 294.442 430.551 296.487 430.568 298.536C430.753 321.527 429.929 335.664 427.985 347.09C426.781 354.235 425.324 359.022 423.489 362.711C422.576 364.735 421.49 366.373 420.351 367.551C419.248 368.691 418.254 369.237 417.491 369.476C415.978 369.951 415.326 369.4 415.326 369.4C415.326 369.4 414.859 368.964 414.293 367.849C414.147 367.562 413.534 366.318 413.212 365.635C412.841 364.845 412.089 363.259 411.829 361.375C411.196 358.869 409.887 353.082 409.03 347.011C407.646 337.516 406.008 320.408 405.835 298.734C405.818 296.647 405.806 294.557 405.801 292.463C405.738 267.852 405.805 243.244 405.977 218.642C406.005 214.713 406.014 210.767 406.022 206.803C406.029 203.325 406.061 200.038 406.127 196.865C406.414 183.127 407.192 172.608 408.289 164.21C409.142 157.677 410.208 152.362 411.135 148.632C411.809 145.367 412.963 142.618 413.565 141.241C414.264 139.646 414.898 138.402 415.372 137.603C416.381 135.903 417.206 135.533 417.206 135.533C417.206 135.533 418.281 135.104 420.126 136.545C421.058 137.273 422.157 138.505 423.238 140.558C424.42 142.804 425.199 145.212 426.127 148.588C427.247 152.746 428.149 157.788 428.898 164.548C429.804 172.689 430.498 183.439 430.692 196.968C430.737 200.075 430.762 203.394 430.756 206.852Z" fill="black"/>
<path d="M233.732 279.05C225.148 272.515 217.2 265.504 209.584 258.463C199.13 248.818 188.872 239.041 178.682 229.272C165.537 216.671 152.463 203.972 139.512 191.126C128.564 180.271 117.534 169.264 106.871 157.693C105.046 155.714 103.205 153.677 101.372 151.559C100.049 150.038 98.64 148.359 97.2123 146.473C96.7146 145.82 96.1524 145.033 95.5466 144.1C95.1567 143.565 94.5962 142.56 93.9183 141.064C93.6697 140.572 93.3831 139.663 93.074 138.336C92.7123 137.515 92.7315 135.7 93.1578 132.901C93.7064 130.164 95.4461 127.673 98.3722 125.45C101.572 123.799 103.677 123.492 105.091 123.412C124.634 122.695 144.85 122.175 165.275 122.192C175.937 122.203 186.595 122.203 197.25 122.181C256.118 122.057 315.425 122.082 341.146 122.296C358.012 122.438 370.465 122.619 380.977 122.951C391.214 123.277 397.39 123.618 403.352 124.394C407.931 124.936 410.817 125.626 413.312 126.953C416.455 128.515 416.743 130.574 416.753 131.39C416.762 132.194 416.456 132.304 416.456 132.304C416.456 132.304 416.255 132.352 415.633 132.161C415.084 131.992 413.871 131.57 412.067 131.737C409.109 131.807 408.998 132.214 403.651 133.071C399.881 133.773 390.14 135.549 381.84 136.754C371.753 138.224 358.495 139.811 341.911 141.192C308.552 143.972 263.911 146.043 197.3 146.182C186.612 146.204 175.928 146.204 165.249 146.192L129.896 146.634C133.544 150.542 146.883 164.597 156.414 174.087C169.245 186.815 182.221 199.418 195.29 211.947C205.448 221.684 215.271 231.679 225.534 241.147C233.976 249.219 241.598 255.066 246.842 258.803C251.47 262.1 256.964 262.209 261.769 258.297C266.84 254.169 279.217 243.47 282.884 240.053C288.831 234.823 295.523 228.629 300.923 223.72C312.044 213.608 321.591 205.029 330.606 197.087C367.019 165.01 386.343 150.703 396.85 144.003C407.215 137.393 408.35 138.621 408.35 138.621C408.35 138.621 409.5 139.979 402.033 149.746C394.698 159.337 378.389 177.851 344.635 211.998C336.498 220.231 326.856 229.876 316.398 240.136C311.094 245.343 304.824 251.526 298.496 257.376C290.641 264.657 280.719 274.09 270.015 282.238C266.344 284.612 263.436 285.699 261.608 285.804C258.974 286.331 256.469 286.552 254.135 286.534C251.807 286.557 249.278 286.346 246.592 285.814C244.648 285.64 241.76 284.601 238.175 282.344C236.686 281.27 235.206 280.172 233.732 279.05Z" fill="black"/>
<path d="M259.985 0.000737397C183.885 0.1675 101.036 35.2898 50.337 104.402C-30.7807 214.982 -7.78031 346.041 75.9704 440.391C87.6167 450.949 100.359 458.616 103.12 455.175C105.88 451.733 97.6135 440.778 85.9673 427.929C8.73883 336.1 -7.12194 222.304 69.0322 118.49C145.186 14.6771 287.656 -2.49267 355.968 36.3865C384.975 50.035 398.451 58.3314 400.907 54.665C403.363 50.998 379.434 34.3734 362.867 25.1064C339.233 12.6991 311.389 -0.111901 259.985 0.000737397Z" fill="black"/>
<path d="M252.015 511.999C328.115 511.833 410.964 476.71 461.663 407.598C542.781 297.018 519.78 165.959 436.03 71.6091C424.383 61.0508 411.641 53.3844 408.88 56.8255C406.12 60.2667 414.387 71.2216 426.033 84.0707C503.261 175.9 519.122 289.696 442.968 393.51C366.814 497.323 224.344 514.493 156.032 475.613C127.025 461.965 113.549 453.669 111.093 457.335C108.637 461.002 132.566 477.627 149.133 486.894C172.767 499.301 200.611 512.112 252.015 511.999Z" fill="black"/>
</g>
<defs>
<clipPath id="clip0_15_50">
<rect width="512" height="512" fill="white"/>
</clipPath>
</defs>
</svg>
