<svg width="512" height="512" viewBox="0 0 512 512" fill="none" xmlns="http://www.w3.org/2000/svg">
<g clip-path="url(#clip0_15_40)">
<path d="M261.381 0.000734759C184.872 0.166901 101.578 35.1636 50.6073 104.029C-30.946 214.213 -7.82209 344.803 76.3784 438.816C88.0872 449.336 100.898 456.975 103.674 453.546C106.449 450.118 98.1377 439.202 86.4289 426.399C8.78576 334.897 -7.16019 221.509 69.4029 118.067C145.966 14.6246 289.201 -2.48376 357.88 36.2563C387.042 49.856 400.591 58.1228 403.06 54.4695C405.529 50.8156 381.472 34.2505 364.816 25.0166C341.055 12.6537 313.061 -0.111501 261.381 0.000734759Z" fill="black"/>
<path d="M250.619 511.999C327.128 511.833 410.422 476.836 461.393 407.971C542.946 297.787 519.822 167.197 435.622 73.1844C423.913 62.6638 411.102 55.0248 408.326 58.4536C405.551 61.8825 413.862 72.7983 425.571 85.6014C503.214 177.103 519.16 290.491 442.597 393.933C366.034 497.375 222.799 514.484 154.12 475.744C124.958 462.144 111.409 453.877 108.94 457.53C106.471 461.184 130.528 477.75 147.184 486.983C170.945 499.346 198.939 512.111 250.619 511.999Z" fill="black"/>
<path d="M339.771 101.295C339.762 104.699 341.749 109.964 344.904 113.312C427.507 196.347 373.818 292.956 368.992 303.164C351.671 334.277 346.026 342.911 332.236 362.148C318.633 380.828 306.698 395.582 295.355 409.195C282.525 424.488 273.557 435.447 266.574 446.402C260.184 456.429 257.641 463.342 259.299 465.352C260.973 467.381 266.594 464.303 275.25 457.98C282.852 452.428 296.929 441.25 309.887 429.299C330.161 408.493 336.708 400.207 352.842 378.201C364.701 362.955 369.964 354.452 381.145 337.961C388.598 326.892 392.632 318.144 402.076 300.508C433.793 221.637 434.678 152.533 368.611 90.3477C367.901 89.5217 367.06 88.828 366.25 88.1054C363.366 85.8845 358.833 84.2965 353.558 84.7957C344.159 85.1699 338.896 93.2447 339.771 101.295Z" fill="black"/>
<path d="M255.293 48.1641C216.536 48.5363 177.908 62.3947 147.02 89.666C85.2428 144.209 71.0354 216.856 108.301 300.521C117.745 318.158 123.154 326.905 130.607 337.975C141.788 354.466 147.049 362.969 158.908 378.215C175.042 400.221 181.589 408.506 201.863 429.312C214.821 441.264 228.898 452.442 236.5 457.994C245.156 464.317 250.777 467.394 252.451 465.365C254.109 463.356 251.566 456.442 245.176 446.416C238.193 435.461 229.225 424.501 216.395 409.209C205.052 395.596 193.117 380.844 179.514 362.164C165.724 342.926 160.079 334.291 142.758 303.178C137.932 292.969 75.1728 191.826 165.551 112.031C191.361 89.2434 223.528 79.9029 255.875 79.6387C274.901 79.7854 299.253 84.8549 316.145 91.7695C321.33 93.2078 327.863 93.457 331.023 93.4717C340.754 91.7035 344.424 84.4427 341.419 76.126C339.332 69.1147 335.314 65.3962 328.814 62.584C307.069 52.5501 282.271 48.458 255.293 48.1641Z" fill="black"/>
<path d="M254.131 136.115C210.697 136.115 175.232 171.581 175.232 215.016C175.232 258.45 210.697 293.916 254.131 293.916C297.565 293.916 333.031 258.45 333.031 215.016C333.031 171.581 297.565 136.115 254.131 136.115ZM254.131 159.916C284.703 159.916 309.232 184.444 309.232 215.016C309.232 245.587 284.703 270.115 254.131 270.115C223.559 270.115 199.031 245.587 199.031 215.016C199.031 184.444 223.559 159.916 254.131 159.916Z" fill="black"/>
</g>
<defs>
<clipPath id="clip0_15_40">
<rect width="512" height="512" fill="white"/>
</clipPath>
</defs>
</svg>
