<svg width="226" height="134" viewBox="0 0 226 134" fill="none" xmlns="http://www.w3.org/2000/svg">
<path d="M76.6667 47.8471V147.866M149.333 75.1248V175.143M155.425 217.551L214.467 188.006C219.081 185.703 222 180.975 222 175.81V24.4488C222 14.3136 211.342 7.71841 202.283 12.2526L155.425 35.6994C151.586 37.627 147.069 37.627 143.241 35.6994L82.7586 5.4392C80.867 4.49274 78.7814 4 76.6667 4C74.552 4 72.4663 4.49274 70.5748 5.4392L11.5331 34.9841C6.90667 37.2996 4 42.0278 4 47.1803V198.542C4 208.677 14.6578 215.272 23.7169 210.738L70.5748 187.291C74.414 185.363 78.9314 185.363 82.7586 187.291L143.241 217.563C147.081 219.479 151.598 219.479 155.425 217.563V217.551Z" stroke="white" stroke-opacity="0.6" stroke-width="8" stroke-linecap="round" stroke-linejoin="round"/>
</svg>
