<svg width="512" height="512" viewBox="0 0 512 512" fill="none" xmlns="http://www.w3.org/2000/svg">
<g clip-path="url(#clip0_15_61)">
<path d="M261.381 0.000734759C184.872 0.166901 101.578 35.1636 50.6073 104.029C-30.946 214.213 -7.82209 344.803 76.3784 438.816C88.0872 449.336 100.898 456.975 103.674 453.546C106.449 450.118 98.1377 439.202 86.4289 426.399C8.78576 334.897 -7.16019 221.509 69.4029 118.067C145.966 14.6246 289.201 -2.48376 357.88 36.2563C387.042 49.856 400.591 58.1228 403.06 54.4695C405.529 50.8156 381.472 34.2505 364.816 25.0166C341.055 12.6537 313.061 -0.111501 261.381 0.000734759Z" fill="black"/>
<path d="M250.619 511.999C327.128 511.833 410.422 476.836 461.393 407.971C542.946 297.787 519.822 167.197 435.622 73.1844C423.913 62.6638 411.102 55.0248 408.326 58.4536C405.551 61.8825 413.862 72.7983 425.571 85.6014C503.214 177.103 519.16 290.491 442.597 393.933C366.034 497.375 222.799 514.484 154.12 475.744C124.958 462.144 111.409 453.877 108.94 457.53C106.471 461.184 130.528 477.75 147.184 486.983C170.945 499.346 198.939 512.111 250.619 511.999Z" fill="black"/>
<path d="M195.359 98.2534C195.067 99.7171 190.604 100.193 182.661 100.26C175.978 100.316 162.025 99.9917 149.372 101.318C140.742 102.281 130.226 103.947 121.876 108.491C119.017 110.018 116.306 111.836 114.115 113.999C112.219 115.846 110.556 118.001 109.315 120.352C108.099 122.6 107.203 125.186 106.598 127.975C105.962 130.879 105.727 134.059 105.758 137.463C105.79 145.166 107.627 153.288 110.381 162.159C113.564 172.174 118.039 182.155 123.469 192.584C129.365 203.865 136.21 215.038 143.92 226.425C151.95 238.273 160.736 249.999 170.267 261.74C174.618 267.097 179.098 272.428 183.707 277.726C200.266 296.758 217.388 314.078 234.66 329.786C246.434 340.489 258.081 350.244 269.729 359.145C281.693 368.282 293.246 376.247 304.741 383.188C316.458 390.25 327.402 395.913 338.21 400.323C349.335 404.836 359.216 407.756 368.71 409.161C379.248 410.695 387.943 410.367 395.441 408.741C400.243 407.723 404.361 406.252 407.763 404.788C415.903 401.294 420.316 398.173 421.488 399.3C422.66 400.427 420.618 405.863 412.725 412.713C409.43 415.568 405.038 418.576 399.499 421.065C390.918 424.884 380.091 427.351 367.396 427.131C356.038 426.962 343.977 424.966 331.142 421.064C318.633 417.287 305.934 412.015 292.816 405.234C279.909 398.574 266.977 390.705 253.871 381.583C241.089 372.693 228.374 362.794 215.7 351.85C197.122 335.816 178.837 317.798 161.384 297.738C156.526 292.154 151.824 286.517 147.277 280.836C137.298 268.374 128.126 255.733 119.807 242.846C111.822 230.487 104.731 218.035 98.6725 205.305C93.0808 193.598 88.4883 181.768 85.2865 169.602C82.4132 158.924 80.8617 147.908 81.4242 136.756C81.6939 131.714 82.5243 126.664 83.988 121.732C85.4161 116.933 87.5266 112.382 90.2516 108.239C93.1288 103.912 96.5852 100.254 100.369 97.2875C104.729 93.8984 109.323 91.4447 113.822 89.7188C126.774 84.8532 139.39 84.4535 149.084 85.0865C164.175 85.9786 176.713 89.2517 184.025 91.7649C191.779 94.4298 195.651 96.7898 195.359 98.2534Z" fill="black"/>
<path d="M192.157 235.553C194.63 238.666 197.395 241.892 200.187 245.424C204.312 250.619 208.663 255.644 213.213 260.492C218.787 266.433 224.646 272.294 230.544 278.313C236.673 284.562 242.803 290.647 249.14 296.327C254.973 301.564 261.147 306.67 267.394 311.949C273.157 316.818 279.242 321.35 285.566 325.563C288.221 327.326 290.821 328.98 293.412 330.426C295.387 331.454 296.7 332.272 297.493 332.429C293.577 332.162 291.899 332.046 292.294 332.591C292.262 332.681 292.611 332.338 293.421 331.746C295.549 330.037 297.673 327.716 300.064 325.117C302.687 322.224 305.271 319.165 307.903 316.021C310.021 313.486 312.219 310.791 314.631 308.048C317.187 305.103 320.128 301.993 323.698 299.04C324.835 298.071 326.104 297.134 327.509 296.261C329.431 295.066 331.582 294.007 333.964 293.148C338.045 291.836 342.04 291.495 345.704 291.891C350.174 292.388 354.013 293.482 357.193 294.655C365.815 297.707 374.528 300.348 382.255 302.598C392.508 305.577 400.895 308.058 409.469 310.963C420.099 314.628 426.66 322.912 429.252 331.248C430.525 335.788 430.731 339.831 430.684 342.997C430.696 346.685 430.457 350.285 430.277 353.115C429.673 363.231 428.477 371.968 427.599 377.322C426.65 383.107 425.739 387.058 424.987 389.608C423.459 394.788 422.377 394.816 422.377 394.816C422.377 394.816 421.374 394.823 420.064 389.588C419.4 386.934 418.699 383.076 418.021 377.172C417.151 369.593 416.935 365.234 415.915 353.345C415.675 350.467 415.441 346.872 415.075 343.966C414.677 341.17 414.321 338.42 413.46 336.613C412.078 333.118 408.495 329.424 404.15 328.529C395.021 326.061 388.253 324.441 377.097 321.596C369.006 319.534 359.908 317 350.563 313.836C347.977 313.014 345.662 312.293 343.78 312.187C342.491 312.112 341.305 312.159 340.506 312.496C339.922 312.64 339.249 313.004 338.471 313.524C337.903 313.904 337.283 314.364 336.611 314.871C334.438 316.601 332.304 318.934 329.964 321.549C327.894 323.896 325.808 326.46 323.574 329.128C320.898 332.33 318.138 335.592 315.206 338.832C312.723 341.613 309.878 344.622 306.4 347.525C305.263 348.535 303.586 349.733 301.291 350.934C300.252 352.182 296.93 352.694 291.488 351.957C287.998 350.798 285.358 349.412 283.425 348.249C280.191 346.432 277.147 344.506 274.244 342.569C267.316 337.959 260.612 332.961 254.212 327.557C248.066 322.369 241.739 317.129 235.497 311.533C228.659 305.392 222.213 299.005 215.953 292.613C210.147 286.691 204.185 280.724 198.317 274.474C193.393 269.227 188.674 263.777 184.188 258.129C181.697 255.008 178.923 251.769 176.129 248.217C174.394 246.011 172.698 243.739 171.07 241.331C169.56 239.282 167.944 236.386 166.705 232.536C165.429 229.23 165.788 224.844 168.08 219.968C170.785 215.628 173.859 212.431 176.605 210.06C180.092 206.925 183.621 204.221 186.726 201.88C194.63 195.799 200.377 191.875 205.02 186.609C205.645 186.122 206.135 184.979 206.553 183.694C206.958 182.401 207.081 180.533 207.239 178.411C207.712 174.149 206.155 168.382 205.012 163.302C203.308 156.334 201.854 151.791 200.848 145.155C200.006 138.931 198.839 132.74 197.997 126.516C196.527 115.694 197.306 109.006 197.786 106.63C198.368 103.758 199.027 103.677 199.027 103.677C199.027 103.677 199.718 103.617 201.129 106.184C203.14 109.842 204.004 112.859 208.368 123.922C209.953 127.974 212.738 135.124 214.798 142.201C216.15 146.725 218.436 151.886 220.792 158.62C222.642 163.539 225.011 170.517 225.226 178.825C225.287 181.25 225.201 184.232 224.583 187.647C223.915 191.346 222.284 195.251 219.39 198.893C213.22 206.305 206.44 211.686 198.943 217.594C195.942 220.007 192.854 222.466 190.248 224.927C188.184 226.974 186.37 228.726 185.581 230.305C186.284 228.119 186.676 227.143 186.284 226.909C186.261 227.295 186.994 228.229 188.016 229.95C189.234 231.779 190.621 233.619 192.157 235.553Z" fill="black"/>
</g>
<defs>
<clipPath id="clip0_15_61">
<rect width="512" height="512" fill="white"/>
</clipPath>
</defs>
</svg>
