<svg width="512" height="512" viewBox="0 0 512 512" fill="none" xmlns="http://www.w3.org/2000/svg">
<g clip-path="url(#clip0_15_70)">
<path d="M261.381 0.000734759C184.872 0.166901 101.578 35.1636 50.6073 104.029C-30.946 214.213 -7.82209 344.803 76.3784 438.816C88.0872 449.336 100.898 456.975 103.674 453.546C106.449 450.118 98.1377 439.202 86.4289 426.399C8.78576 334.897 -7.16019 221.509 69.4029 118.067C145.966 14.6246 289.201 -2.48376 357.88 36.2563C387.042 49.856 400.591 58.1228 403.06 54.4695C405.529 50.8156 381.472 34.2505 364.816 25.0166C341.055 12.6537 313.061 -0.111501 261.381 0.000734759Z" fill="black"/>
<path d="M250.619 511.999C327.128 511.833 410.422 476.836 461.393 407.971C542.946 297.787 519.822 167.197 435.622 73.1844C423.913 62.6638 411.102 55.0248 408.326 58.4536C405.551 61.8825 413.862 72.7983 425.571 85.6014C503.214 177.103 519.16 290.491 442.597 393.933C366.034 497.375 222.799 514.484 154.12 475.744C124.958 462.144 111.409 453.877 108.94 457.53C106.471 461.184 130.528 477.75 147.184 486.983C170.945 499.346 198.939 512.111 250.619 511.999Z" fill="black"/>
<path d="M247.612 128.735C245.193 133.306 244.792 136.786 243.439 141.626C238.427 167.462 235.839 191.931 237.231 218.252C238.137 229.795 238.189 241.504 242.638 252.289C243.741 254.792 244.813 257.363 246.416 259.589C252.833 266.581 261.331 271.25 270.047 274.761C275.419 276.966 280.866 279.005 286.448 280.615C301.347 285.06 316.84 288.18 332.455 287.658C337.82 287.447 343.362 287.119 348.323 284.869C351.347 283.464 354.173 281.009 354.932 277.633C355.663 274.701 354.993 271.455 353.073 269.106C349.217 263.445 343.32 259.611 337.309 256.559C333.359 254.576 329.4 252.59 325.243 251.07C306.944 243.908 286.283 244.184 266.564 244.216C266.529 243.222 266.76 242.038 266.892 240.981C267.734 235.734 269.12 225.705 269.306 220.377C271.237 200.697 272.895 182.785 271.058 163.03C270.317 155.479 270.106 147.937 268.09 140.614C266.456 135.518 264.989 130.1 261.316 126.033C259.545 124.124 256.226 122.035 254.618 122.176C251.296 122.133 248.744 126.187 247.612 128.735Z" fill="black"/>
<path d="M272.746 87.5101C272.746 90.1365 272.358 92.7372 271.604 95.1637C270.85 97.5903 269.745 99.795 268.352 101.652C266.959 103.509 265.306 104.983 263.486 105.988C261.666 106.993 259.715 107.51 257.746 107.51C255.776 107.51 253.825 106.993 252.005 105.988C250.185 104.983 248.532 103.509 247.139 101.652C245.746 99.795 244.641 97.5903 243.887 95.1637C243.134 92.7372 242.746 90.1365 242.746 87.5101C242.746 82.2057 244.326 77.1187 247.139 73.3679C249.952 69.6172 253.767 67.5101 257.746 67.5101C261.724 67.5101 265.539 69.6172 268.352 73.3679C271.165 77.1187 272.746 82.2057 272.746 87.5101Z" fill="black"/>
<path d="M109.636 253.412C109.636 258.717 108.056 263.804 105.243 267.554C102.43 271.305 98.6145 273.412 94.6362 273.412C90.658 273.412 86.8427 271.305 84.0296 267.554C81.2166 263.804 79.6362 258.717 79.6362 253.412C79.6362 248.108 81.2166 243.021 84.0296 239.27C86.8427 235.519 90.658 233.412 94.6362 233.412C98.6145 233.412 102.43 235.519 105.243 239.27C108.056 243.021 109.636 248.108 109.636 253.412Z" fill="black"/>
<path d="M431.729 254.04C431.729 259.345 430.149 264.432 427.336 268.182C424.522 271.933 420.707 274.04 416.729 274.04C412.751 274.04 408.935 271.933 406.122 268.182C403.309 264.432 401.729 259.345 401.729 254.04C401.729 248.736 403.309 243.649 406.122 239.898C408.935 236.147 412.751 234.04 416.729 234.04C420.707 234.04 424.522 236.147 427.336 239.898C430.149 243.649 431.729 248.736 431.729 254.04Z" fill="black"/>
<path d="M274.931 415.574C274.931 420.879 273.351 425.966 270.538 429.717C267.724 433.467 263.909 435.574 259.931 435.574C255.953 435.574 252.137 433.467 249.324 429.717C246.511 425.966 244.931 420.879 244.931 415.574C244.931 410.27 246.511 405.183 249.324 401.432C252.137 397.682 255.953 395.574 259.931 395.574C263.909 395.574 267.724 397.682 270.538 401.432C273.351 405.183 274.931 410.27 274.931 415.574Z" fill="black"/>
<path d="M262.358 68.8249C237.78 73.5325 212.119 77.1834 189.661 89.4264C118.755 124.575 72.0735 209.15 90.9399 287.759C106.963 356.049 168.242 412.159 238.145 420.222C326.905 429.604 418.833 358.986 425.206 268.463C432.234 188.817 379.874 110.578 306.347 81.4384C298.702 78.0602 266.77 68.569 290.84 70.328C373.588 82.4029 438.273 158.397 446.253 240.179C453.107 296.332 430.001 353.785 388.427 391.627C334.431 443.304 248.773 463.129 180.046 429.939C113.534 399.165 64.0281 330.301 64.5576 255.889C64.1269 164.113 137.917 75.3593 230.568 66.3279C241.011 65.9687 252.705 64.3803 262.358 68.8249Z" fill="black"/>
</g>
<defs>
<clipPath id="clip0_15_70">
<rect width="512" height="512" fill="white"/>
</clipPath>
</defs>
</svg>
