<svg width="224" height="128" viewBox="0 0 224 128" fill="none" xmlns="http://www.w3.org/2000/svg">
<path d="M111.84 39.9468V111.84H165.761M219.681 111.84C219.681 126.002 216.891 140.025 211.472 153.109C206.053 166.193 198.109 178.081 188.095 188.095C178.081 198.109 166.193 206.053 153.109 211.472C140.025 216.891 126.002 219.681 111.84 219.681C97.6786 219.681 83.6555 216.891 70.5717 211.472C57.4879 206.053 45.5996 198.109 35.5857 188.095C25.5718 178.081 17.6284 166.193 12.2089 153.109C6.78937 140.025 4 126.002 4 111.84C4 83.2394 15.3617 55.8097 35.5857 35.5857C55.8097 15.3617 83.2394 4 111.84 4C140.441 4 167.871 15.3617 188.095 35.5857C208.319 55.8097 219.681 83.2394 219.681 111.84Z" stroke="white" stroke-opacity="0.6" stroke-width="8" stroke-linecap="round" stroke-linejoin="round"/>
</svg>
