<svg width="24" height="24" viewBox="0 0 24 24" fill="none" xmlns="http://www.w3.org/2000/svg">
<path d="M3 11.64C3 7.56705 3 5.5306 4.2653 4.2653C5.5306 3 7.56705 3 11.64 3H12.36C16.433 3 18.4694 3 19.7347 4.2653C21 5.5306 21 7.56705 21 11.64V12.36C21 16.433 21 18.4694 19.7347 19.7347C18.4694 21 16.433 21 12.36 21H11.64C7.56705 21 5.5306 21 4.2653 19.7347C3 18.4694 3 16.433 3 12.36V11.64Z" fill="#0077FF"/>
<path d="M12.5771 15.9676C8.47457 15.9676 6.13461 13.1551 6.03711 8.4751H8.09211C8.15961 11.9101 9.67457 13.3651 10.8746 13.6651V8.4751H12.8096V11.4376C13.9946 11.3101 15.2395 9.9601 15.6595 8.4751H17.5945C17.272 10.3051 15.922 11.6551 14.962 12.2101C15.922 12.6601 17.4596 13.8376 18.0446 15.9676H15.9145C15.457 14.5426 14.3171 13.4401 12.8096 13.2901V15.9676H12.5771Z" fill="white"/>
</svg>
